<?xml version="1.0" standalone="no"?>
<!DOCTYPE svg PUBLIC "-//W3C//DTD SVG 20010904//EN"
 "http://www.w3.org/TR/2001/REC-SVG-20010904/DTD/svg10.dtd">
<svg version="1.0" xmlns="http://www.w3.org/2000/svg"
 width="580.000000pt" height="580.000000pt" viewBox="0 0 580.000000 580.000000"
 preserveAspectRatio="xMidYMid meet">
<metadata>
Created by potrace 1.11, written by Peter Selinger 2001-2013
</metadata>
<g transform="translate(0.000000,580.000000) scale(0.100000,-0.100000)"
fill="#000000" stroke="none">
<path d="M2854 5697 c-22 -23 -56 -54 -75 -69 -84 -68 -150 -118 -154 -118 -3
0 -26 -15 -52 -34 -142 -100 -404 -211 -648 -273 -108 -27 -107 -27 -208 -43
-198 -31 -593 -33 -757 -4 -14 2 -41 7 -60 10 -104 17 -357 88 -392 110 -7 5
-19 9 -27 11 -18 2 -132 58 -194 95 -55 32 -77 35 -77 11 0 -15 -147 -479
-170 -538 -14 -35 -40 -118 -37 -120 1 -1 22 -15 47 -32 144 -98 249 -303 277
-543 12 -96 2 -587 -11 -609 -4 -6 -3 -11 1 -11 10 0 10 -41 0 -57 -4 -5 -3
-13 0 -17 4 -4 8 -64 9 -135 1 -70 4 -152 8 -182 3 -30 8 -85 11 -124 6 -79
13 -138 20 -187 3 -18 7 -49 9 -68 8 -56 44 -247 57 -293 13 -49 13 -49 24
-102 4 -22 10 -44 13 -50 3 -5 7 -16 8 -25 4 -31 53 -178 94 -285 24 -60 43
-112 43 -115 -1 -3 33 -72 74 -155 71 -140 234 -402 282 -452 12 -12 21 -25
21 -28 0 -3 12 -20 27 -37 149 -173 301 -319 443 -428 25 -19 47 -37 50 -40 7
-9 199 -140 204 -140 3 0 42 -23 88 -52 121 -75 432 -223 668 -318 245 -99
254 -102 353 -151 l79 -39 66 34 c90 47 181 86 198 86 8 0 14 5 14 12 0 6 3 9
6 5 3 -3 54 15 112 40 59 24 112 46 117 47 6 1 26 9 45 18 19 8 69 30 110 48
104 46 301 144 385 193 70 40 285 177 295 187 3 3 32 25 65 50 33 25 67 53 76
62 9 10 19 18 23 18 19 0 249 230 360 360 36 43 118 154 162 220 27 41 51 77
54 80 3 3 10 14 16 25 6 11 24 45 41 75 111 203 232 491 257 613 2 6 6 19 9
27 16 38 80 312 92 389 3 20 8 48 10 61 10 47 16 86 20 131 2 24 4 44 5 44 1
0 3 23 6 50 2 28 6 70 9 95 19 173 22 397 14 920 -3 206 10 315 50 418 10 26
19 50 20 55 2 18 56 116 84 152 40 52 112 125 123 125 5 1 19 9 31 19 l23 19
-46 133 c-24 74 -47 141 -49 149 -2 8 -4 15 -5 15 -1 0 -3 7 -5 16 -1 8 -29
95 -61 191 -55 167 -59 176 -79 166 -11 -6 -22 -14 -25 -18 -8 -11 -221 -113
-236 -113 -8 0 -14 -4 -14 -9 0 -5 -5 -6 -10 -3 -6 4 -16 2 -23 -3 -28 -22
-324 -98 -419 -108 -29 -3 -66 -8 -83 -10 -43 -7 -468 -12 -479 -6 -5 3 -30 6
-55 8 -158 7 -445 76 -638 153 -57 22 -225 104 -288 141 -42 24 -182 118 -201
135 -6 5 -35 30 -65 55 -29 25 -68 60 -87 78 -19 17 -35 32 -36 31 -1 0 -19
-19 -42 -42z"/>
</g>
</svg>
