<svg xmlns="http://www.w3.org/2000/svg" width="796.937" height="780.564" viewBox="0 0 747.1287 731.77855"><path d="M373.466 0l-4.453 4.309c-21.501 20.804-46.83 37.33-76.616 49.992-7.366 3.13-10.363 4.279-19.44 7.449-14.53 5.076-30.7 9.115-48.491 12.115-19.855 3.348-32.15 4.337-54 4.342-24.672.01-41.391-1.638-64.051-6.295C79.18 66.315 51.439 55.656 31.58 43.158c-1.476-.929-2.767-1.69-2.87-1.69-.102 0-1.442 3.882-2.978 8.626a3072.704 3072.704 0 0 1-4.824 14.775 6763.302 6763.302 0 0 0-6.242 19.049C9.555 99.588.183 128.188.005 128.66c-.071.188.658.786 1.617 1.328 4.267 2.412 9.786 6.736 13.633 10.682 14.554 14.932 24.012 36.935 26.949 62.69 1.344 11.783 1.46 21.51.475 39.708-1.898 35.012-1.34 74.145 1.504 105.452 1.35 14.864 4.276 36.594 6.724 49.949 14.528 79.237 44.758 143.86 91.637 195.9 5.217 5.792 19.013 19.6 24.62 24.643 22.634 20.352 46.652 37.34 75.302 53.26 9.893 5.497 25.003 13.165 34.199 17.353 2.64 1.202 5.881 2.684 7.201 3.293 7.715 3.558 23.187 10.022 43.799 18.299 25.721 10.328 35.936 14.843 42.601 18.83 2.91 1.74 3.37 1.929 3.899 1.596 7.77-4.896 17.107-9.107 45.3-20.428 20.605-8.274 36.044-14.724 43.893-18.34a2270.93 2270.93 0 0 1 7.258-3.312c7.344-3.338 25.24-12.42 33.45-16.975 28.895-16.032 51.525-31.937 74.55-52.395 6.242-5.545 20.489-19.712 25.97-25.824 39.344-43.863 66.284-94.886 82.907-157.017 9.195-34.37 14.851-71.461 17.111-112.233 1.298-23.408 1.168-60.622-.295-84.75-1.572-25.948.382-45.262 6.465-63.9 6.66-20.407 19.867-38.078 34.737-46.48.959-.543 1.684-1.14 1.613-1.329-.171-.451-15.29-46.613-20.648-63.04-6.78-20.787-7.901-24.142-8.07-24.147-.089 0-1.643.918-3.452 2.047-19.818 12.358-47.225 22.84-74.238 28.392-22.66 4.657-39.38 6.3-64.051 6.295-21.853 0-34.156-.994-54-4.342-14.157-2.388-22.328-4.247-36.299-8.258C445.613 53.91 407.688 32.592 379.11 5.318a606.224 606.224 0 0 0-4.55-4.308zm-.95 17.666l3.975 3.885c14.207 13.889 31.791 26.786 50.174 36.799 31.875 17.361 68.166 28.36 107.13 32.468 18.157 1.915 39.587 2.13 58.02.58C631.202 88.09 669.058 76.7 696.513 59.9c2.274-1.392 4.252-2.529 4.394-2.527.23 0 27.15 81.778 27.334 83.035.053.359-.62.892-2.264 1.795-3.732 2.05-7.412 4.974-11.765 9.346-6.205 6.23-10.556 12.285-14.7 20.449-7.424 14.63-11.276 30.702-12.322 51.42-.344 6.815-.245 12.091.479 25.5.876 16.233 1.125 28.69.955 48-.165 18.782-.326 23.613-1.268 37.951-5.52 84.104-27.594 155.192-65.756 211.764-12.734 18.878-24.83 33.546-40.859 49.549-27.908 27.863-59.952 50.508-99.926 70.617-19.257 9.687-31.542 15.104-62.1 27.38-26.222 10.536-36.294 14.98-43.304 19.106-1.574.927-2.903 1.676-2.953 1.668-.05-.01-1.104-.63-2.342-1.38-3.093-1.88-13.192-6.79-19.35-9.409-2.805-1.193-13.065-5.38-22.8-9.303-19.37-7.805-28.194-11.48-37.801-15.742-46.372-20.571-82.425-43.182-113.85-71.398-6.107-5.484-19.221-18.616-24.422-24.455-27.036-30.358-47.748-64.03-63.166-102.694-17.117-42.926-27.365-90.928-31.046-145.404-.925-13.683-1.109-19.166-1.274-38.25-.17-19.598.075-31.993.953-48.299.729-13.532.823-18.416.48-25.201-1.179-23.414-6.098-41.515-15.572-57.299-5.902-9.834-15.406-19.626-23.214-23.916-1.64-.9-2.317-1.435-2.264-1.79.186-1.259 27.105-83.04 27.334-83.042.142 0 1.761.922 3.6 2.053 34.29 21.092 81.922 33.067 131.427 33.04 49.935-.026 98.464-11.918 139.215-34.114 18.36-10 35.985-22.928 50.174-36.8z"/><path d="M330.216 533.718c-19.4-.375-23.142-1.104-27.304-5.32-1.075-1.089-2.264-2.593-2.641-3.343-.6-1.192-.866-1.412-2.096-1.737a68.484 68.484 0 0 1-2.33-.661c-.507-.159-1.208-.288-1.558-.288-.35 0-.72-.135-.821-.3-.102-.165-.45-.3-.772-.3-.323 0-.821-.12-1.108-.265a39.147 39.147 0 0 0-1.42-.666c-1.545-.688-3.336-2-3.896-2.855-.461-.704-.486-.97-.176-1.892 1.243-3.692 3.7-5.72 9.472-7.82.33-.121 1.545-.692 2.7-1.27l2.1-1.052-.086-1.29c-.098-1.474-1.284-3.316-4.021-6.246-2.183-2.336-3.244-4.737-3.244-7.34 0-1.285.7-4.09 1.34-5.374.253-.507.46-1.104.46-1.326 0-.222.102-.406.225-.409.124 0 .556-.677.96-1.5.403-.822.842-1.495.975-1.495.132 0 .24-.177.24-.394 0-.216.24-.655.531-.975.292-.32.963-1.256 1.492-2.081a62.563 62.563 0 0 1 1.195-1.815c.729-.988 3.033-5.425 3.808-7.335.954-2.352 1.353-4.563 1.364-7.561.014-3.772.27-4.446 3.614-9.54 3.993-6.078 4.006-6.762.146-7.707-.825-.202-2.367-.373-3.428-.38-2.1-.014-3.922-.522-3.922-1.094 0-.343 1.182-2.8 1.5-3.118.297-.297 1.241-1.961 1.404-2.475.092-.289.286-.525.431-.525.146 0 .265-.145.265-.321 0-.177.405-.91.9-1.63.495-.719.9-1.394.9-1.5 0-.105.405-.78.9-1.5.495-.719.9-1.394.9-1.5 0-.105.39-.756.864-1.447.475-.69 1.15-1.76 1.5-2.379.35-.618.927-1.63 1.283-2.248a84.9 84.9 0 0 0 1.275-2.325c.346-.66.699-1.268.785-1.35.268-.258 2.881-5.817 3.667-7.8.163-.413.416-.985.561-1.271.146-.287.265-.785.265-1.107 0-.323.12-.66.265-.75.145-.09.338-.47.429-.843.09-.373.318-1.22.506-1.88 1.62-5.703 2.231-10.246 2.242-16.65.01-5.82-.38-9.41-1.644-15.15a66.097 66.097 0 0 1-.497-2.477c-.092-.538-.287-1.052-.434-1.143-.146-.09-.267-.496-.267-.901s-.121-.97-.27-1.257c-.15-.287-.432-1.129-.63-1.871-.197-.743-.48-1.585-.629-1.871a2.757 2.757 0 0 1-.27-1.065c0-.3-.112-.672-.248-.83-.137-.156-.43-.892-.654-1.634-.224-.743-.49-1.485-.59-1.65-.1-.165-.355-.84-.566-1.5-.21-.66-.526-1.538-.702-1.95-.177-.413-.42-1.02-.54-1.35a42.278 42.278 0 0 0-.6-1.5 65.053 65.053 0 0 1-.64-1.575 4747451582318289 4747451582318289 0 0 1-4.46-11.115c0-.136-.27-.806-.6-1.49-.33-.682-.6-1.385-.6-1.56 0-.175-.12-.553-.266-.84-.247-.487-.5-1.085-1.235-2.92a139.71 139.71 0 0 0-.58-1.425 29.785 29.785 0 0 1-.661-1.875c-.21-.66-.488-1.328-.62-1.485-.131-.157-.239-.588-.239-.958s-.135-.755-.3-.857c-.165-.102-.3-.507-.3-.9s-.135-.798-.3-.9c-.165-.102-.3-.45-.3-.772 0-.323-.121-.82-.27-1.107-.15-.287-.432-1.129-.63-1.871-.197-.743-.48-1.585-.629-1.871-.149-.287-.27-.852-.27-1.257 0-.405-.12-.811-.267-.902-.147-.09-.34-.605-.429-1.142a36.64 36.64 0 0 0-.453-2.178c-2.444-10.067-3.516-21.872-2.627-28.95.44-3.514.62-4.55 1.375-7.95.165-.743.443-1.991.616-2.775.688-3.103.919-4.871 1.08-8.29.166-3.484.193-3.597 1.195-4.908.563-.738 1.276-1.902 1.583-2.585.307-.683.856-1.917 1.221-2.742 1.278-2.891 2.32-4.806 2.862-5.255.66-.548.583-4.266-.133-6.47-.78-2.404-1.008-4.238-.703-5.675.206-.972.394-1.215.992-1.276 1.732-.179 5.8-1.091 7.037-1.58.33-.13 1.41-.547 2.4-.928 2.518-.968 7.345-3.488 9.197-4.801.438-.311.944-.565 1.125-.565.18 0 .328-.135.328-.3 0-.165.145-.3.321-.3.177 0 .886-.384 1.575-.853 1.97-1.339 7.226-4.152 9.13-4.887.37-.143.978-.383 1.35-.533 3.538-1.43 6.074-1.865 11.825-2.029l4.85-.138.923 1.935c1.596 3.344 4.76 7.223 6.944 8.513.485.287.882.627.882.756 0 .13.178.236.394.236.216 0 .655.237.975.527.529.48 3.799 2.163 5.456 2.81.372.144.98.389 1.35.543.372.154 1.215.443 1.875.642.66.198 1.47.462 1.8.585.843.315 4.678 1.318 6.3 1.647 5.556 1.128 9.4 1.822 12.525 2.261l4.2.589c1.197.167 3.39.438 4.875.602 11.871 1.309 16.625 1.97 21.45 2.979l2.25.471c.495.104 1.17.295 1.5.425.33.13 1.14.399 1.8.598 1.866.565 4.885 2.138 5.747 2.995.942.937 3.703 4.972 3.703 5.412 0 .173.135.314.3.314.165 0 .3.14.3.313 0 .295 2.887 4.762 3.287 5.087.542.44 3.95 4.847 4.488 5.804.852 1.517.846 4.124-.014 5.914-.352.733-.723 1.4-.825 1.482-.102.082-.332.415-.511.738-.805 1.455-4.812 2.462-8.542 2.148-1.228-.104-4.682-.272-7.676-.373-5.267-.18-5.45-.166-5.635.416-.23.725.337 2.115 1.171 2.872 1.675 1.522 2.509 1.57 15.764.92 3.173-.156 3.5-.121 3.988.418.472.521.49.754.167 2.05-.582 2.33-1.307 3.364-4.713 6.71-1.763 1.733-3.407 3.556-3.654 4.05-.78 1.566-2.213 3.897-2.459 4a.433.433 0 0 0-.236.372c0 .707-2.255 2.888-3.562 3.447-2.669 1.14-4.623.173-9.624-4.764-2.07-2.044-4.169-3.981-4.664-4.304-1.397-.913-5.456-1.905-7.748-1.894-1.687.01-7.263 1.066-7.852 1.49-.165.12-.941.4-1.725.626-.784.225-1.425.514-1.425.643 0 .13-.19.235-.422.235-.231 0-.94.254-1.575.566-2.07 1.016-7.015 3.278-8.653 3.96-.33.137-1.612.583-2.85.99l-2.25.742.08 1.296c.088 1.42.362 2.287 1.486 4.687.634 1.356 2.458 4.069 3.064 4.559.102.083.925 1.027 1.828 2.1.903 1.072 1.72 2.017 1.815 2.1.424.368 2.604 3.842 2.945 4.692.424 1.058 7.947 8.494 10.163 10.046.375.262 1.19.935 1.81 1.495.62.559 2.002 1.756 3.069 2.659 1.067.903 2.008 1.715 2.09 1.804.082.089.893.765 1.8 1.502.908.738 1.853 1.546 2.1 1.796.248.25 1.259 1.13 2.248 1.956 1.973 1.646 11.212 10.769 12.62 12.46 2.212 2.659 4.632 5.946 4.632 6.292 0 .164.11.298.244.298.135 0 .519.506.854 1.125.926 1.709 1.94 3.49 2.18 3.825.118.165.382.907.588 1.65.206.742.5 1.764.654 2.271.154.507.28 1.24.28 1.629s.126 1.122.28 1.628c.154.507.44 1.53.635 2.272.522 1.986 1.4 3.725 3.41 6.75 2.269 3.414 2.575 4.287 3.046 8.693.322 3.008.315 4.255-.045 7.65-.439 4.152-.798 6.622-1.31 9.007-.16.742-.443 2.092-.63 3-.186.907-.468 2.257-.626 3-.84 3.947-1.407 7.38-1.733 10.5-.294 2.823-.588 4.2-.895 4.2-.112 0-.44.4-.728.889-.289.489-.696 1.063-.904 1.275-.208.212-.84 1.06-1.402 1.886a111.287 111.287 0 0 1-3.393 4.658c-.195.252-.956 1.332-1.69 2.4-.733 1.068-1.415 2.01-1.514 2.092-.099.082-.505.622-.901 1.2-.397.577-.802 1.117-.9 1.2-.098.083-.506.622-.907 1.2-.4.577-.967 1.311-1.26 1.631-1.357 1.48-.233 3.957 3.69 8.128l2.942 3.13.136 3.68c.145 3.942.404 5.837.832 6.101.147.091.268.393.27.672 0 .642 2.677 5.935 3.885 7.69.502.73.912 1.47.912 1.647 0 .176.135.32.3.32.165 0 .3.145.3.322 0 .176.385.885.856 1.575.828 1.212 2.342 4.06 2.98 5.604 1.559 3.776 1.944 7.235 1.143 10.26-.68 2.567-.923 2.985-3.001 5.163-1.088 1.14-1.978 2.254-1.978 2.475 0 .221-.114.402-.252.402-.139 0-.431.541-.65 1.203-.333 1.01-.33 1.334.022 2.025.488.96 2.53 3.056 3.505 3.597.37.206.91.504 1.2.663.288.158 1.47.724 2.625 1.257 3.002 1.386 4.275 2.289 5.273 3.74.878 1.275 1.139 2.617.577 2.965-.165.102-.3.399-.3.66 0 1.316-4.237 3.69-6.587 3.69-.666 0-1.067.089-4.322.96-2.382.637-3.742 2.05-4.991 5.19-.829 2.081-1.357 2.994-2.195 3.795l-.947.905-8.704-.213c-4.787-.117-8.794-.264-8.904-.327-.26-.148-31.188.419-43.6.8-12.604.386-31.658.489-44.55.24z"/><path d="M372.458 674.996h30.713l-.82-7.37 222.857-141.43-2.321-3.392-5.179 3.036-9.476-13.479c-141.895 16.813-211.54 101.662-235.774 133.41 37.354-82.164 124.131-123.044 232.744-142.501l-.316-.505c-100.222 19.903-190.741 53.462-232.428 142.286-41.687-88.824-132.206-122.383-232.428-142.286l-.316.505c108.613 19.457 195.39 60.337 232.744 142.502-24.234-31.749-93.88-116.598-235.774-133.41l-9.476 13.478-5.179-3.036-2.321 3.393 222.857 141.428-.82 7.37h30.713" fill-rule="evenodd" stroke="#000"/></svg>