<svg xmlns="http://www.w3.org/2000/svg" width="796.937" height="780.565" viewBox="0 0 747.12865 731.77931"><path d="M373.564 17.246l3.975 3.884c14.207 13.89 31.791 26.787 50.174 36.8 31.875 17.361 68.166 28.36 107.13 32.468 18.157 1.914 39.587 2.129 58.02.58 39.386-3.31 77.243-14.698 104.698-31.498 2.274-1.392 4.252-2.53 4.394-2.527.23.004 27.15 81.778 27.334 83.035.053.358-.62.891-2.264 1.795-3.732 2.05-7.412 4.974-11.765 9.345-6.205 6.231-10.556 12.286-14.7 20.45-7.424 14.629-11.276 30.702-12.322 51.42-.344 6.815-.245 12.09.479 25.5.876 16.233 1.125 28.69.955 48-.166 18.781-.327 23.612-1.268 37.95-5.52 84.104-27.594 155.193-65.756 211.764-12.734 18.879-24.83 33.546-40.859 49.55-27.908 27.862-59.952 50.508-99.926 70.617-19.257 9.687-31.542 15.104-62.1 27.38-26.222 10.536-36.294 14.98-43.304 19.106-1.574.926-2.903 1.676-2.953 1.668-.051-.008-1.104-.63-2.342-1.381-3.093-1.879-13.192-6.788-19.35-9.408-2.805-1.194-13.065-5.38-22.8-9.303-19.37-7.806-28.194-11.48-37.801-15.742-46.372-20.572-82.425-43.182-113.85-71.399-6.107-5.484-19.221-18.616-24.422-24.455-27.036-30.357-47.749-64.03-63.166-102.693-17.117-42.926-27.365-90.928-31.047-145.404-.924-13.683-1.108-19.167-1.273-38.25-.17-19.599.075-31.993.953-48.3.729-13.531.822-18.415.48-25.2-1.179-23.414-6.098-41.515-15.572-57.3-5.902-9.833-15.406-19.625-23.214-23.915-1.64-.9-2.317-1.435-2.264-1.791.186-1.258 27.105-83.04 27.334-83.041.142-.001 1.761.922 3.6 2.052 34.29 21.093 81.922 33.068 131.427 33.042 49.935-.027 98.464-11.92 139.215-34.116 18.36-10 35.985-22.927 50.174-36.799z" fill="#fff"/><path d="M373.465 0l-4.453 4.309c-21.501 20.804-46.829 37.33-76.616 49.992-7.366 3.13-10.362 4.279-19.439 7.449-14.53 5.076-30.7 9.115-48.492 12.115-19.855 3.348-32.15 4.337-54 4.342-24.672.005-41.391-1.638-64.05-6.295C79.18 66.315 51.437 55.656 31.58 43.158c-1.476-.929-2.767-1.69-2.87-1.69-.101 0-1.442 3.882-2.978 8.626a3074.511 3074.511 0 0 1-4.824 14.775 6764.105 6764.105 0 0 0-6.242 19.049C9.554 99.588.182 128.188.004 128.66c-.071.188.658.786 1.617 1.328 4.267 2.411 9.787 6.736 13.633 10.682 14.555 14.932 24.012 36.935 26.95 62.69 1.343 11.783 1.46 21.51.474 39.708-1.898 35.012-1.34 74.145 1.504 105.452 1.35 14.864 4.276 36.594 6.724 49.949 14.528 79.237 44.758 143.86 91.637 195.9 5.217 5.792 19.013 19.6 24.621 24.643 22.633 20.352 46.651 37.34 75.3 53.26 9.894 5.497 25.004 13.165 34.2 17.353 2.64 1.202 5.881 2.684 7.201 3.293 7.715 3.558 23.187 10.022 43.8 18.299 25.72 10.328 35.935 14.843 42.6 18.83 2.91 1.74 3.37 1.929 3.9 1.596 7.768-4.896 17.106-9.107 45.3-20.428 20.604-8.274 36.043-14.724 43.892-18.34 1.269-.584 4.536-2.075 7.258-3.313 7.344-3.337 25.24-12.419 33.45-16.974 28.895-16.032 51.525-31.937 74.55-52.395 6.242-5.545 20.489-19.712 25.97-25.824 39.344-43.863 66.284-94.886 82.907-157.017 9.195-34.37 14.851-71.461 17.112-112.233 1.297-23.408 1.167-60.622-.295-84.75-1.573-25.948.381-45.262 6.464-63.9 6.66-20.407 19.867-38.078 34.737-46.48.96-.543 1.684-1.14 1.613-1.329-.171-.451-15.29-46.613-20.648-63.04-6.78-20.787-7.901-24.142-8.07-24.147-.089-.003-1.643.918-3.452 2.047-19.817 12.358-47.225 22.84-74.238 28.392-22.66 4.657-39.38 6.3-64.05 6.295-21.854-.005-34.157-.994-54-4.342-14.158-2.388-22.328-4.247-36.3-8.258C445.612 53.91 407.687 32.592 379.11 5.318a605.946 605.946 0 0 0-4.55-4.308L373.465 0zm-.95 17.666l3.975 3.885c14.207 13.889 31.791 26.786 50.174 36.799 31.875 17.361 68.166 28.36 107.13 32.468 18.158 1.915 39.587 2.13 58.02.58C631.201 88.09 669.058 76.7 696.512 59.9c2.275-1.392 4.252-2.529 4.394-2.527.23.004 27.15 81.778 27.334 83.035.053.359-.62.892-2.263 1.795-3.733 2.05-7.413 4.974-11.766 9.346-6.205 6.23-10.556 12.285-14.7 20.45-7.424 14.628-11.276 30.701-12.322 51.419-.344 6.815-.245 12.091.479 25.5.876 16.233 1.125 28.69.955 48-.165 18.782-.326 23.613-1.268 37.951-5.52 84.104-27.594 155.192-65.755 211.764-12.735 18.878-24.83 33.546-40.86 49.549-27.908 27.863-59.952 50.508-99.926 70.617-19.257 9.687-31.542 15.104-62.1 27.38-26.222 10.536-36.294 14.98-43.304 19.106-1.574.927-2.903 1.676-2.953 1.668-.05-.008-1.104-.63-2.342-1.38-3.093-1.88-13.191-6.79-19.35-9.409-2.804-1.193-13.065-5.38-22.8-9.303-19.37-7.805-28.194-11.48-37.8-15.742-46.373-20.571-82.426-43.182-113.85-71.398-6.108-5.484-19.222-18.616-24.422-24.455-27.037-30.358-47.75-64.03-63.166-102.694C71.61 437.646 61.36 389.644 57.68 335.168c-.925-13.683-1.109-19.166-1.274-38.25-.17-19.598.075-31.993.953-48.299.73-13.532.823-18.416.48-25.201-1.179-23.414-6.098-41.515-15.571-57.299-5.903-9.834-15.407-19.626-23.215-23.916-1.64-.9-2.317-1.435-2.264-1.79.186-1.259 27.105-83.04 27.334-83.042.142-.001 1.761.922 3.6 2.053 34.291 21.092 81.922 33.067 131.427 33.04 49.935-.026 98.464-11.918 139.215-34.114 18.36-10 35.986-22.928 50.174-36.8l3.977-3.884z"/><path d="M330.215 533.718c-19.4-.375-23.141-1.104-27.304-5.32-1.075-1.089-2.263-2.593-2.641-3.343-.6-1.192-.866-1.412-2.096-1.737a68.396 68.396 0 0 1-2.33-.661c-.507-.159-1.208-.288-1.558-.288-.35 0-.72-.135-.821-.3-.102-.165-.45-.3-.772-.3-.323 0-.82-.12-1.107-.265a38.967 38.967 0 0 0-1.421-.666c-1.545-.688-3.336-2-3.896-2.855-.461-.704-.486-.97-.176-1.892 1.243-3.692 3.7-5.72 9.472-7.82.33-.121 1.545-.692 2.7-1.27l2.1-1.052-.086-1.29c-.098-1.474-1.284-3.316-4.021-6.246-2.182-2.336-3.243-4.737-3.243-7.34 0-1.285.699-4.09 1.34-5.374.252-.507.46-1.104.46-1.326 0-.222.1-.406.225-.409.123-.003.555-.677.959-1.5.403-.822.842-1.495.975-1.495.132 0 .24-.177.24-.394 0-.216.24-.655.531-.975.292-.32.964-1.256 1.492-2.081a62.603 62.603 0 0 1 1.195-1.816c.729-.987 3.033-5.424 3.808-7.334.954-2.352 1.353-4.563 1.364-7.561.014-3.772.27-4.446 3.614-9.54 3.993-6.078 4.006-6.762.147-7.707-.825-.202-2.368-.373-3.43-.38-2.099-.013-3.92-.522-3.92-1.094 0-.343 1.181-2.8 1.5-3.118.296-.297 1.24-1.961 1.403-2.475.092-.289.286-.525.432-.525.145 0 .265-.145.265-.321 0-.177.405-.91.9-1.63.495-.719.9-1.394.9-1.5 0-.105.405-.78.9-1.5.495-.719.9-1.394.9-1.5 0-.105.388-.756.863-1.447a39.22 39.22 0 0 0 1.5-2.379c.35-.618.927-1.63 1.283-2.248a84.9 84.9 0 0 0 1.275-2.325c.346-.66.699-1.268.785-1.35.268-.258 2.881-5.817 3.667-7.8.163-.413.416-.985.562-1.271.145-.287.265-.785.265-1.107 0-.323.118-.66.264-.75.145-.09.338-.47.429-.843.09-.374.318-1.22.506-1.88 1.62-5.703 2.231-10.246 2.242-16.65.01-5.82-.38-9.41-1.644-15.15a66.105 66.105 0 0 1-.497-2.477c-.092-.538-.287-1.052-.434-1.143-.146-.09-.266-.496-.266-.901s-.122-.97-.271-1.257c-.149-.287-.432-1.129-.63-1.871-.197-.743-.48-1.585-.629-1.871a2.757 2.757 0 0 1-.27-1.065c0-.3-.112-.672-.248-.83-.137-.156-.43-.892-.654-1.634-.224-.743-.489-1.485-.59-1.65-.1-.165-.355-.84-.566-1.5-.21-.66-.526-1.538-.702-1.95-.177-.413-.42-1.02-.54-1.35a42.278 42.278 0 0 0-.6-1.5 65.136 65.136 0 0 1-.64-1.575 4747451582318289 4747451582318289 0 0 1-4.46-11.115c0-.136-.27-.806-.6-1.49-.33-.682-.6-1.385-.6-1.56 0-.175-.12-.553-.265-.84-.248-.487-.501-1.085-1.235-2.92a167.13 167.13 0 0 0-.58-1.425 29.797 29.797 0 0 1-.662-1.875c-.21-.66-.488-1.328-.62-1.485-.13-.157-.238-.588-.238-.958s-.135-.755-.3-.857c-.165-.102-.3-.507-.3-.9s-.135-.798-.3-.9c-.165-.102-.3-.45-.3-.772 0-.323-.122-.82-.271-1.107-.149-.287-.432-1.129-.63-1.871-.197-.743-.48-1.585-.629-1.871-.149-.287-.27-.852-.27-1.257 0-.405-.12-.811-.267-.902-.147-.09-.34-.605-.429-1.142a36.643 36.643 0 0 0-.452-2.178c-2.445-10.067-3.517-21.872-2.628-28.95.44-3.514.62-4.55 1.376-7.95l.615-2.775c.688-3.103.919-4.871 1.081-8.29.165-3.484.193-3.597 1.194-4.908.563-.738 1.276-1.902 1.583-2.585.307-.683.857-1.917 1.221-2.742 1.278-2.891 2.32-4.806 2.862-5.255.66-.548.583-4.266-.133-6.47-.78-2.404-1.007-4.238-.703-5.675.206-.972.394-1.215.992-1.276 1.732-.179 5.8-1.091 7.038-1.58.33-.13 1.41-.547 2.4-.928 2.518-.968 7.344-3.488 9.196-4.801.438-.311.944-.565 1.125-.565.18 0 .329-.135.329-.3 0-.165.144-.3.32-.3.177 0 .886-.384 1.576-.853 1.97-1.339 7.225-4.152 9.129-4.887.37-.143.978-.383 1.35-.533 3.538-1.43 6.074-1.865 11.825-2.029l4.85-.138.924 1.935c1.595 3.344 4.76 7.223 6.943 8.513.486.287.883.627.883.756 0 .13.177.236.393.236.216 0 .655.237.975.527.53.48 3.799 2.163 5.457 2.81.37.144.978.389 1.35.543.37.154 1.215.443 1.875.642.66.198 1.47.462 1.8.585.843.315 4.677 1.318 6.3 1.647 5.555 1.128 9.4 1.822 12.525 2.261l4.2.589c1.196.167 3.39.438 4.875.602 11.87 1.309 16.624 1.97 21.45 2.979l2.25.471c.495.104 1.17.295 1.5.425.33.13 1.14.399 1.8.598 1.866.565 4.884 2.138 5.746 2.995.942.937 3.704 4.972 3.704 5.412 0 .173.135.314.3.314.165 0 .3.14.3.313 0 .295 2.886 4.762 3.286 5.087.542.44 3.95 4.847 4.488 5.804.852 1.517.846 4.124-.014 5.914-.352.733-.723 1.4-.825 1.482-.102.082-.332.415-.511.738-.805 1.455-4.812 2.462-8.542 2.148-1.228-.104-4.682-.272-7.676-.373-5.267-.18-5.45-.166-5.634.416-.23.724.336 2.115 1.17 2.872 1.675 1.522 2.51 1.57 15.764.92 3.173-.156 3.5-.121 3.988.418.472.521.49.754.167 2.05-.581 2.33-1.307 3.364-4.713 6.71-1.763 1.733-3.407 3.556-3.654 4.05-.78 1.566-2.213 3.897-2.459 4a.433.433 0 0 0-.236.372c0 .707-2.255 2.888-3.561 3.447-2.67 1.14-4.624.173-9.625-4.764-2.07-2.044-4.169-3.981-4.664-4.304-1.397-.913-5.455-1.905-7.748-1.894-1.687.008-7.263 1.066-7.852 1.49-.165.12-.941.4-1.725.626-.784.225-1.425.514-1.425.643 0 .13-.19.235-.421.235-.232 0-.941.254-1.575.566-2.072 1.016-7.016 3.278-8.654 3.96-.33.137-1.612.583-2.85.99l-2.25.742.08 1.296c.088 1.42.363 2.287 1.486 4.687.634 1.356 2.458 4.07 3.064 4.559.102.082.925 1.027 1.828 2.1.903 1.072 1.72 2.017 1.815 2.1.424.368 2.604 3.842 2.945 4.692.424 1.058 7.947 8.494 10.164 10.046.374.262 1.189.935 1.81 1.494.62.56 2 1.757 3.068 2.66 1.067.903 2.008 1.715 2.09 1.804.082.09.893.765 1.8 1.502.908.738 1.853 1.546 2.1 1.796.248.25 1.26 1.13 2.248 1.956 1.973 1.646 11.212 10.769 12.62 12.46 2.212 2.659 4.632 5.946 4.632 6.292 0 .164.11.298.245.298.134 0 .518.506.853 1.125.926 1.709 1.941 3.49 2.18 3.825.118.165.383.907.588 1.65.206.742.5 1.764.655 2.271.153.507.28 1.24.28 1.629s.125 1.122.279 1.628c.154.507.44 1.53.635 2.272.522 1.986 1.4 3.725 3.41 6.75 2.27 3.414 2.575 4.287 3.046 8.693.322 3.008.315 4.255-.045 7.65-.439 4.152-.798 6.621-1.31 9.007-.16.742-.443 2.092-.63 3-.186.907-.468 2.257-.626 3-.84 3.947-1.407 7.38-1.733 10.5-.294 2.823-.588 4.2-.895 4.2-.112 0-.44.4-.728.889-.289.489-.696 1.063-.904 1.275-.208.212-.84 1.06-1.402 1.886a111.366 111.366 0 0 1-3.393 4.658c-.195.252-.956 1.332-1.69 2.4-.733 1.068-1.415 2.01-1.514 2.092-.099.082-.505.622-.901 1.2-.397.577-.802 1.117-.9 1.2-.098.082-.506.622-.906 1.2-.4.577-.968 1.311-1.26 1.631-1.358 1.48-.233 3.957 3.689 8.128l2.942 3.13.136 3.68c.145 3.942.404 5.836.832 6.101.147.09.268.393.27.672 0 .642 2.677 5.935 3.885 7.69.502.73.912 1.47.912 1.647 0 .176.135.32.3.32.165 0 .3.145.3.322 0 .176.385.885.856 1.575.828 1.212 2.343 4.06 2.98 5.604 1.56 3.776 1.944 7.235 1.143 10.26-.68 2.567-.923 2.985-3.001 5.163-1.088 1.14-1.978 2.254-1.978 2.475 0 .221-.114.402-.252.402-.139 0-.43.541-.65 1.203-.333 1.01-.33 1.334.022 2.025.488.96 2.53 3.056 3.505 3.597l1.2.663c.288.158 1.47.724 2.625 1.257 3.002 1.386 4.276 2.289 5.274 3.74.877 1.275 1.138 2.617.576 2.965-.165.102-.3.399-.3.66 0 1.316-4.237 3.69-6.587 3.69-.666 0-1.067.089-4.322.96-2.382.637-3.742 2.05-4.991 5.19-.829 2.081-1.356 2.994-2.194 3.795l-.948.905-8.704-.213c-4.787-.117-8.794-.264-8.904-.327-.259-.148-31.188.419-43.6.8-12.604.386-31.658.489-44.55.24z"/><path d="M406.436 108.892A245.467 245.467 0 0 1 601.04 348.931a245.467 245.467 0 0 1-245.467 245.467A245.467 245.467 0 0 1 110.107 348.93a245.467 245.467 0 0 1 .729-14.57 257.589 257.589 0 0 0-1.74 28.713 257.589 257.589 0 0 0 257.59 257.59 257.589 257.589 0 0 0 257.587-257.59 257.589 257.589 0 0 0-217.837-254.182z"/></svg>