<svg xmlns="http://www.w3.org/2000/svg" width="512" height="512" viewBox="0 0 512 512"><path fill="#999" d="M231.528 254.288L4.904 480.912c-6.296 6.296-6.296 16.496 0 22.792a16.038 16.038 0 0 0 11.392 4.72 16.02 16.02 0 0 0 11.392-4.72l228.328-228.328 228.328 228.328a16.052 16.052 0 0 0 11.393 4.72c4.119 0 8.248-1.567 11.392-4.72 6.296-6.296 6.296-16.496 0-22.792L280.512 254.288 507.28 27.504c6.296-6.296 6.296-16.496 0-22.792-6.296-6.288-16.496-6.288-22.784 0L256.024 233.2 27.528 4.72c-6.296-6.288-16.488-6.288-22.784 0-6.296 6.296-6.296 16.496 0 22.792l226.784 226.776z"/></svg>