<svg xmlns="http://www.w3.org/2000/svg" width="512" height="512" viewBox="0 0 512 512"><g fill="#999"><path d="M503.173 176.552c-4.944 0-8.828 3.884-8.828 8.828v282.483c0 14.653-11.829 26.482-26.482 26.482H44.138c-14.653 0-26.482-11.829-26.482-26.482V44.138c0-14.653 11.829-26.482 26.482-26.482h282.483c4.943 0 8.827-3.884 8.827-8.828S331.564 0 326.621 0H44.138C19.774 0 0 19.774 0 44.138v423.725C0 492.227 19.774 512 44.138 512h423.725C492.227 512 512 492.227 512 467.862V185.379c0-4.767-4.061-8.827-8.827-8.827z"/><path d="M511.823 7.062c0-.176-.177-.53-.177-.706 0-.353-.176-.53-.353-.883s-.354-.53-.53-.883c-.176-.176-.176-.53-.353-.706-.706-.883-1.412-1.766-2.472-2.472-.177-.177-.529-.177-.706-.353-.354-.177-.53-.354-.883-.53-.354-.177-.53-.177-.883-.353-.177 0-.53-.177-.706-.177-.53.177-1.06 0-1.59 0H379.586c-4.943 0-8.827 3.884-8.827 8.828s3.884 8.828 8.827 8.828H481.81L161.368 338.097c-3.531 3.531-3.531 9.004 0 12.535 1.766 1.766 4.061 2.648 6.179 2.648 2.119 0 4.59-.883 6.18-2.648L494.345 30.19v102.224c0 4.943 3.884 8.827 8.828 8.827 4.943 0 8.827-3.884 8.827-8.827V8.828c0-.53-.177-1.06-.177-1.766zM44.138 39.724a4.37 4.37 0 0 0-4.414 4.414v123.586a4.37 4.37 0 0 0 4.414 4.414 4.37 4.37 0 0 0 4.414-4.414V48.552h119.172a4.37 4.37 0 0 0 4.414-4.414 4.37 4.37 0 0 0-4.414-4.414H44.138z"/></g></svg>