<svg xmlns="http://www.w3.org/2000/svg" viewBox="0 0 591.6 591.6" width="512" height="512"><g fill="#FFF"><path d="M581.4 204c-5.712 0-10.2 4.488-10.2 10.2v326.4c0 16.932-13.668 30.6-30.6 30.6H51c-16.932 0-30.6-13.668-30.6-30.6V51c0-16.932 13.668-30.6 30.6-30.6h326.4c5.712 0 10.2-4.488 10.2-10.2S383.112 0 377.4 0H51C22.848 0 0 22.848 0 51v489.6c0 28.152 22.848 51 51 51h489.6c28.152 0 51-22.848 51-51V214.2c0-5.508-4.692-10.2-10.2-10.2z"/><path d="M591.396 8.16c0-.204-.204-.612-.204-.816 0-.408-.204-.612-.408-1.02-.204-.408-.408-.612-.612-1.02-.204-.204-.204-.612-.408-.816-.816-1.02-1.632-2.04-2.856-2.856-.204-.204-.612-.204-.816-.408-.408-.204-.612-.408-1.02-.612-.408-.204-.612-.204-1.02-.408-.204 0-.612-.204-.816-.204-.612.204-1.224 0-1.836 0H438.6c-5.712 0-10.2 4.488-10.2 10.2s4.488 10.2 10.2 10.2h118.116l-370.26 370.26c-4.08 4.08-4.08 10.404 0 14.484 2.04 2.04 4.692 3.06 7.14 3.06 2.448 0 5.304-1.02 7.14-3.06L571.2 34.884V153c0 5.712 4.488 10.2 10.2 10.2s10.2-4.488 10.2-10.2V10.2c0-.612-.204-1.224-.204-2.04zM51 45.9c-2.856 0-5.1 2.244-5.1 5.1v142.8c0 2.856 2.244 5.1 5.1 5.1s5.1-2.244 5.1-5.1V56.1h137.7c2.856 0 5.1-2.244 5.1-5.1s-2.244-5.1-5.1-5.1H51z"/></g></svg>