<?xml version="1.0" encoding="UTF-8" standalone="no"?>
<!-- Created with Inkscape (http://www.inkscape.org/) -->

<svg
   xmlns:dc="http://purl.org/dc/elements/1.1/"
   xmlns:cc="http://creativecommons.org/ns#"
   xmlns:rdf="http://www.w3.org/1999/02/22-rdf-syntax-ns#"
   xmlns:svg="http://www.w3.org/2000/svg"
   xmlns="http://www.w3.org/2000/svg"
   xmlns:sodipodi="http://sodipodi.sourceforge.net/DTD/sodipodi-0.dtd"
   xmlns:inkscape="http://www.inkscape.org/namespaces/inkscape"
   width="210.85631mm"
   height="206.52438mm"
   viewBox="0 0 747.12865 731.77931"
   id="svg4142"
   version="1.1"
   inkscape:version="0.91 r13725"
   sodipodi:docname="KnightCombat.svg"
   inkscape:export-filename="C:\Users\mukho\Pictures\Iberia-Malta.png"
   inkscape:export-xdpi="90"
   inkscape:export-ydpi="90">
  <defs
     id="defs4144" />
  <sodipodi:namedview
     id="base"
     pagecolor="#ffffff"
     bordercolor="#666666"
     borderopacity="1.0"
     inkscape:pageopacity="0.0"
     inkscape:pageshadow="2"
     inkscape:zoom="0.49497475"
     inkscape:cx="167.19311"
     inkscape:cy="405.82934"
     inkscape:document-units="px"
     inkscape:current-layer="layer3"
     showgrid="false"
     fit-margin-top="0"
     fit-margin-left="0"
     fit-margin-right="0"
     fit-margin-bottom="0"
     inkscape:snap-bbox="true"
     inkscape:bbox-nodes="true"
     inkscape:bbox-paths="true"
     inkscape:snap-bbox-edge-midpoints="true"
     inkscape:snap-bbox-midpoints="true"
     inkscape:object-paths="true"
     inkscape:snap-intersection-paths="true"
     inkscape:object-nodes="true"
     inkscape:snap-midpoints="true"
     inkscape:snap-smooth-nodes="true"
     inkscape:snap-object-midpoints="true"
     inkscape:snap-center="true"
     inkscape:snap-page="true"
     inkscape:snap-global="true"
     inkscape:window-width="1366"
     inkscape:window-height="705"
     inkscape:window-x="-8"
     inkscape:window-y="-8"
     inkscape:window-maximized="1" />
  <metadata
     id="metadata4147">
    <rdf:RDF>
      <cc:Work
         rdf:about="">
        <dc:format>image/svg+xml</dc:format>
        <dc:type
           rdf:resource="http://purl.org/dc/dcmitype/StillImage" />
        <dc:title></dc:title>
      </cc:Work>
    </rdf:RDF>
  </metadata>
  <g
     inkscape:groupmode="layer"
     id="layer3"
     inkscape:label="BackingWhite">
    <path
       inkscape:connector-curvature="0"
       style="display:inline;fill:#ffffff;fill-opacity:1"
       d="m 371.42638,12.635713 3.9746,3.88476 c 14.2069,13.8891 31.7909,26.78613 50.1738,36.79883 31.8754,17.36175 68.1663,28.3606 107.1309,32.46875 18.1566,1.9143 39.5862,2.1289 58.0195,0.58008 39.3862,-3.30934 77.2432,-14.69811 104.6973,-31.49805 2.2748,-1.39206 4.2523,-2.52934 4.3945,-2.52734 0.2303,0.004 27.1491,81.778047 27.334,83.035147 0.053,0.35852 -0.6195,0.8915 -2.2637,1.79492 -3.7323,2.05079 -7.4121,4.97401 -11.7656,9.34571 -6.2049,6.23088 -10.5558,12.28508 -14.6992,20.44922 -7.4244,14.62923 -11.2765,30.70241 -12.3223,51.41993 -0.344,6.8155 -0.2457,12.09124 0.4785,25.5 0.8764,16.23307 1.1251,28.68994 0.9551,48 -0.1654,18.78159 -0.3264,23.61273 -1.2676,37.95117 -5.5204,84.10356 -27.5946,155.19174 -65.7558,211.76367 -12.7344,18.87809 -24.8305,33.54596 -40.8594,49.54883 -27.9084,27.86307 -59.9521,50.50822 -99.9258,70.61719 -19.2576,9.68763 -31.5426,15.10405 -62.0996,27.38086 -26.2231,10.53561 -36.2946,14.97978 -43.3047,19.10547 -1.5743,0.92652 -2.9031,1.67597 -2.9531,1.66796 -0.051,-0.008 -1.1043,-0.62941 -2.3418,-1.38085 -3.0935,-1.87845 -13.1917,-6.7884 -19.3496,-9.40821 -2.805,-1.19334 -13.0658,-5.37969 -22.8008,-9.30273 -19.3696,-7.80564 -28.1936,-11.48027 -37.8008,-15.74219 -46.3719,-20.57142 -82.4248,-43.18185 -113.8496,-71.39844 -6.1075,-5.48397 -19.2216,-18.61602 -24.4219,-24.45508 -27.0364,-30.35727 -47.7489,-64.03034 -63.165996,-102.69335 -17.1169,-42.92583 -27.36583,-90.92814 -31.04693,-145.4043 -0.9245,-13.68249 -1.1083,-19.16643 -1.2734,-38.25 -0.1696,-19.59838 0.075,-31.99313 0.9531,-48.29883 0.7288,-13.5321 0.8223,-18.41568 0.4805,-25.20117 -1.1795,-23.41391 -6.0988,-41.51499 -15.5723,-57.29884 -5.9023,-9.83395 -15.4067,-19.62576 -23.2148,-23.91602 -1.6393,-0.90071 -2.3163,-1.43506 -2.2637,-1.79101 0.1858,-1.25796 27.1049,-83.039017 27.334,-83.041017 0.1418,-0.001 1.7614,0.92207 3.5996,2.05274 34.29143,21.09213 81.922526,33.06731 131.427726,33.04101 49.935,-0.0265 98.4636,-11.91905 139.2149,-34.11523 18.3591,-9.99971 35.9853,-22.92774 50.1738,-36.79883 z"
       id="path4719-9"
       sodipodi:nodetypes="ccssscccsssscssssssscsssssssssssssccssscc" />
  </g>
  <g
     inkscape:label="Layer 1"
     inkscape:groupmode="layer"
     id="layer1"
     transform="translate(550.70719,-112.18683)"
     style="display:inline">
    <path
       style="display:inline;fill:#000000"
       d="m 373.46484,0 -4.45312,4.3085938 c -21.501,20.8042702 -46.82874,37.3313472 -76.61524,49.9921872 -7.3663,3.13105 -10.36285,4.278759 -19.43945,7.449219 -14.5303,5.0755 -30.7001,9.114924 -48.49219,12.115234 -19.85498,3.34817 -32.15009,4.336797 -54,4.341797 -24.67173,0.0052 -41.39098,-1.638122 -64.05078,-6.294922 -27.233767,-5.59679 -54.975772,-16.255876 -74.833982,-28.753906 -1.47625,-0.92911 -2.766771,-1.689453 -2.86914,-1.689453 -0.10236,0 -1.443196,3.88125 -2.978516,8.625 -1.53533,4.74375 -3.705919,11.392891 -4.824219,14.775391 -1.1183,3.3825 -3.927717,11.953828 -6.242187,19.048828 -5.1118604,15.67038 -14.48416975,44.270171 -14.66210975,44.742191 -0.07089,0.18803 0.6577675,0.78598 1.61718755,1.32812 4.26711,2.41122 9.7865322,6.73553 13.6328122,10.68164 14.55463,14.9324 24.012379,36.93509 26.949219,62.68946 1.34367,11.78318 1.460839,21.50992 0.474609,39.70898 -1.89733,35.01148 -1.340303,74.14422 1.503907,105.45117 1.35042,14.86443 4.276009,36.59436 6.724609,49.94922 14.52808,79.2372 44.758079,143.86072 91.63672,195.90039 5.21703,5.79138 19.01309,19.59967 24.62109,24.64258 22.63299,20.35227 46.65117,37.3396 75.30078,53.25976 9.89291,5.49732 25.00332,13.16519 34.19922,17.35352 2.64,1.2024 5.88117,2.68424 7.20117,3.29297 7.7148,3.5577 23.18663,10.02189 43.79883,18.29883 25.7212,10.32849 35.93626,14.84308 42.60156,18.83008 2.90861,1.73984 3.36964,1.92894 3.89844,1.5957 7.7693,-4.89585 17.10668,-9.10625 45.30078,-20.42774 20.6044,-8.27379 36.04308,-14.7237 43.89258,-18.33984 1.2686,-0.58443 4.53531,-2.07521 7.25781,-3.3125 7.3437,-3.33747 25.23912,-12.41932 33.44922,-16.97461 28.8954,-16.03236 51.52548,-31.93714 74.55078,-52.39453 6.2417,-5.54556 20.48881,-19.71241 25.97071,-25.82422 39.3428,-43.86312 66.28345,-94.88629 82.90625,-157.01758 9.1952,-34.36896 14.85103,-71.46092 17.11133,-112.23242 1.2978,-23.40819 1.16767,-60.62237 -0.29493,-84.75 -1.5729,-25.94828 0.38155,-45.26167 6.46485,-63.90039 6.6605,-20.40713 19.86703,-38.07823 34.73633,-46.48047 0.9594,-0.54214 1.68428,-1.14009 1.61328,-1.32812 -0.1712,-0.45147 -15.29074,-46.613079 -20.64844,-63.041019 -6.7793,-20.78648 -7.90061,-24.141485 -8.07031,-24.146485 -0.0883,-0.0024 -1.64197,0.918625 -3.45118,2.046875 -19.81749,12.3588 -47.22467,22.841038 -74.23828,28.392578 -22.6598,4.6568 -39.37908,6.299922 -64.05078,6.294922 -21.8532,-0.0046 -34.1559,-0.993607 -54,-4.341797 -14.1571,-2.38865 -22.32743,-4.247412 -36.29883,-8.257812 -40.75289,-11.69786 -78.67796,-33.015893 -107.25585,-60.2890626 -1.90181,-1.815 -3.94969,-3.7534338 -4.55079,-4.3085938 L 373.46484,0 Z m -0.94922,17.666016 3.97461,3.884765 c 14.2069,13.8891 31.79093,26.786128 50.17383,36.798828 31.8754,17.36175 68.16626,28.3606 107.13086,32.46875 18.1566,1.9143 39.58623,2.128899 58.01953,0.580079 39.3862,-3.309341 77.24317,-14.698107 104.69727,-31.498047 2.2748,-1.39206 4.25233,-2.529344 4.39453,-2.527344 0.2303,0.004 27.14908,81.778053 27.33398,83.035153 0.0527,0.35852 -0.61947,0.8915 -2.26367,1.79492 -3.7323,2.05079 -7.41212,4.97401 -11.76562,9.34571 -6.2049,6.23088 -10.55582,12.28508 -14.69922,20.44922 -7.4244,14.62923 -11.27647,30.7024 -12.32227,51.41992 -0.344,6.8155 -0.24568,12.09124 0.47852,25.5 0.8764,16.23307 1.12508,28.68994 0.95508,48 -0.1654,18.78159 -0.32638,23.61273 -1.26758,37.95117 -5.5204,84.10356 -27.59466,155.19174 -65.75586,211.76367 -12.7344,18.87809 -24.83048,33.54596 -40.85938,49.54883 -27.9084,27.86307 -59.95208,50.50822 -99.92578,70.61719 -19.2576,9.68763 -31.54261,15.10405 -62.09961,27.38086 -26.2231,10.53561 -36.29458,14.97978 -43.30468,19.10547 -1.5743,0.92652 -2.90313,1.67597 -2.95313,1.66796 -0.0505,-0.008 -1.1043,-0.62941 -2.3418,-1.38085 -3.0935,-1.87845 -13.1917,-6.7884 -19.34961,-9.40821 -2.805,-1.19334 -13.06578,-5.37969 -22.80078,-9.30273 -19.3696,-7.80564 -28.19358,-11.48027 -37.80078,-15.74219 -46.37195,-20.57142 -82.42482,-43.18185 -113.84961,-71.39844 -6.10749,-5.48397 -19.22156,-18.61602 -24.42187,-24.45508 -27.03644,-30.35727 -47.74889,-64.03034 -63.166018,-102.69335 -17.11696,-42.92583 -27.365824,-90.92814 -31.046874,-145.4043 -0.92455,-13.68249 -1.108328,-19.16643 -1.273438,-38.25 -0.16957,-19.59838 0.07502,-31.99313 0.953125,-48.29883 0.72874,-13.5321 0.822289,-18.41568 0.480469,-25.20117 -1.17949,-23.41391 -6.098846,-41.51498 -15.572266,-57.29883 -5.9023,-9.83395 -15.406764,-19.62576 -23.214844,-23.91602 -1.63924,-0.90071 -2.316271,-1.43506 -2.263672,-1.79101 0.185771,-1.25796 27.104875,-83.039016 27.333985,-83.041016 0.14177,-0.0015 1.761379,0.922064 3.599609,2.052734 34.29139,21.09213 81.922494,33.067316 131.427734,33.041016 49.93491,-0.02654 98.46354,-11.919055 139.21484,-34.115235 18.3591,-9.99971 35.98533,-22.927738 50.17383,-36.798828 l 3.97656,-3.884765 z"
       transform="translate(-550.70719,112.18683)"
       id="path4719"
       inkscape:connector-curvature="0" />
    <path
       style="display:inline;fill:#000000"
       d="m -220.49251,645.90528 c -19.3997,-0.37542 -23.1411,-1.10451 -27.304,-5.32071 -1.0747,-1.08843 -2.2631,-2.59287 -2.6409,-3.34317 -0.5999,-1.19133 -0.8655,-1.41144 -2.096,-1.73694 -0.775,-0.20499 -1.8237,-0.50235 -2.3304,-0.66078 -0.5067,-0.15846 -1.2075,-0.28809 -1.5573,-0.28809 -0.3498,0 -0.7194,-0.135 -0.8214,-0.3 -0.102,-0.165 -0.4493,-0.3 -0.7718,-0.3 -0.3225,0 -0.8208,-0.11925 -1.1073,-0.26499 -0.2865,-0.14577 -0.9259,-0.44538 -1.4209,-0.66585 -1.545,-0.68808 -3.336,-2.00046 -3.8957,-2.85465 -0.4612,-0.70386 -0.486,-0.97071 -0.1758,-1.89198 1.2433,-3.69237 3.699,-5.72019 9.4715,-7.82118 0.33,-0.12012 1.545,-0.69156 2.7,-1.26987 l 2.1,-1.0515 -0.086,-1.28886 c -0.098,-1.47492 -1.284,-3.31695 -4.0208,-6.24657 -2.1823,-2.33604 -3.2433,-4.73709 -3.2433,-7.33971 0,-1.2858 0.6991,-4.09008 1.3397,-5.37423 0.2532,-0.50754 0.4603,-1.10454 0.4603,-1.32669 0,-0.22215 0.1013,-0.40602 0.225,-0.40857 0.1238,-0.003 0.5554,-0.67758 0.9591,-1.5 0.4037,-0.82245 0.8424,-1.49535 0.975,-1.49535 0.1325,0 0.2409,-0.17703 0.2409,-0.39342 0,-0.21639 0.2388,-0.65514 0.5307,-0.975 0.2918,-0.31986 0.9633,-1.25658 1.4921,-2.08158 0.5288,-0.825 1.0662,-1.64187 1.1943,-1.81527 0.7293,-0.98733 3.033,-5.42442 3.8081,-7.33473 0.9542,-2.35188 1.3531,-4.56291 1.3642,-7.56087 0.014,-3.77181 0.2692,-4.44576 3.6145,-9.53913 3.9923,-6.07833 4.0053,-6.76299 0.1461,-7.70748 -0.825,-0.2019 -2.3679,-0.37281 -3.4287,-0.3798 -2.0997,-0.0138 -3.9213,-0.52233 -3.9213,-1.09464 0,-0.34314 1.1819,-2.79999 1.5,-3.11808 0.2968,-0.29673 1.2405,-1.96098 1.4035,-2.475 0.092,-0.28875 0.2858,-0.525 0.4315,-0.525 0.1458,0 0.265,-0.14442 0.265,-0.32094 0,-0.17652 0.405,-0.9096 0.9,-1.62906 0.495,-0.71946 0.9,-1.39446 0.9,-1.5 0,-0.10554 0.405,-0.78054 0.9,-1.5 0.495,-0.71946 0.9,-1.39446 0.9,-1.5 0,-0.10554 0.3888,-0.7569 0.8639,-1.44744 0.4751,-0.69057 1.1501,-1.76112 1.5,-2.37906 0.3499,-0.61791 0.9269,-1.62975 1.2823,-2.2485 0.3554,-0.61875 0.9292,-1.665 1.275,-2.325 0.3459,-0.66 0.6991,-1.2675 0.7849,-1.35 0.2681,-0.25776 2.8818,-5.81718 3.667,-7.8 0.1633,-0.4125 0.4162,-0.98442 0.5619,-1.27092 0.1458,-0.28653 0.265,-0.7848 0.265,-1.1073 0,-0.3225 0.1189,-0.65985 0.2642,-0.74964 0.1453,-0.0898 0.3384,-0.46902 0.4291,-0.8427 0.091,-0.37371 0.3184,-1.21944 0.5058,-1.87944 1.6201,-5.70411 2.2318,-10.24647 2.2423,-16.65 0.01,-5.82093 -0.3801,-9.41127 -1.6442,-15.15 -0.1818,-0.825 -0.4054,-1.94001 -0.497,-2.47779 -0.092,-0.53778 -0.2866,-1.05198 -0.4333,-1.1427 -0.1468,-0.0907 -0.2669,-0.49629 -0.2669,-0.90129 0,-0.405 -0.1218,-0.97077 -0.2707,-1.2573 -0.1489,-0.2865 -0.4321,-1.12842 -0.6293,-1.87092 -0.1971,-0.7425 -0.4803,-1.58442 -0.6292,-1.87092 -0.1489,-0.28653 -0.2708,-0.76578 -0.2708,-1.065 0,-0.29925 -0.1115,-0.67233 -0.2478,-0.82908 -0.1363,-0.15675 -0.4306,-0.8925 -0.654,-1.635 -0.2235,-0.7425 -0.4888,-1.485 -0.5896,-1.65 -0.1009,-0.165 -0.3555,-0.84 -0.5658,-1.5 -0.2103,-0.66 -0.5266,-1.5375 -0.7027,-1.95 -0.1762,-0.4125 -0.4192,-1.02 -0.5401,-1.35 -0.1208,-0.33 -0.3908,-1.005 -0.6,-1.5 -0.2091,-0.495 -0.4972,-1.20375 -0.6401,-1.575 -0.1429,-0.37125 -0.3949,-1.0125 -0.5599,-1.425 -0.165,-0.4125 -0.435,-1.0875 -0.6,-1.5 -0.165,-0.4125 -0.453,-1.12125 -0.6401,-1.575 -0.1871,-0.45375 -0.439,-1.095 -0.5599,-1.425 -0.3047,-0.8322 -0.7325,-1.85706 -1.4701,-3.52173 -0.3464,-0.78195 -0.6299,-1.53285 -0.6299,-1.66866 0,-0.13581 -0.27,-0.80574 -0.6,-1.48878 -0.33,-0.68301 -0.6,-1.38519 -0.6,-1.56042 0,-0.1752 -0.1192,-0.55296 -0.265,-0.83949 -0.2479,-0.48744 -0.5008,-1.08543 -1.235,-2.92092 -0.165,-0.4125 -0.4261,-1.05375 -0.5801,-1.425 -0.1541,-0.37125 -0.4517,-1.215 -0.6613,-1.875 -0.2096,-0.66 -0.4885,-1.32825 -0.6198,-1.485 -0.1313,-0.15675 -0.2388,-0.58752 -0.2388,-0.9573 0,-0.36975 -0.135,-0.75573 -0.3,-0.8577 -0.165,-0.10197 -0.3,-0.50697 -0.3,-0.9 0,-0.39303 -0.135,-0.79803 -0.3,-0.9 -0.165,-0.10197 -0.3,-0.44928 -0.3,-0.77178 0,-0.3225 -0.1218,-0.82077 -0.2707,-1.1073 -0.1489,-0.2865 -0.4321,-1.12842 -0.6293,-1.87092 -0.1971,-0.7425 -0.4803,-1.58442 -0.6292,-1.87092 -0.1489,-0.28653 -0.2708,-0.8523 -0.2708,-1.2573 0,-0.405 -0.1201,-0.8106 -0.2668,-0.90129 -0.1468,-0.0907 -0.3395,-0.60492 -0.4284,-1.1427 -0.089,-0.53778 -0.2925,-1.51779 -0.4528,-2.17779 -2.4447,-10.06671 -3.5162,-21.87137 -2.6278,-28.95 0.441,-3.51403 0.6204,-4.55047 1.3758,-7.95 0.165,-0.7425 0.4422,-1.99125 0.6159,-2.775 0.6879,-3.10289 0.9184,-4.87083 1.0806,-8.29036 0.1652,-3.48389 0.1925,-3.59603 1.1937,-4.90763 0.5635,-0.73825 1.2759,-1.90133 1.583,-2.58464 0.3072,-0.6833 0.8568,-1.91737 1.2214,-2.74237 1.2776,-2.89074 2.3207,-4.80616 2.8616,-5.25516 0.6597,-0.54746 0.5836,-4.26532 -0.1324,-6.47029 -0.7805,-2.40354 -1.0078,-4.23748 -0.7035,-5.67455 0.2058,-0.9715 0.3946,-1.21446 0.9919,-1.27597 1.7327,-0.17843 5.8001,-1.09097 7.0378,-1.57897 0.33,-0.13011 1.41,-0.54794 2.4,-0.92851 2.518,-0.96794 7.3443,-3.48792 9.1964,-4.80167 0.4379,-0.31068 0.9442,-0.56488 1.125,-0.56488 0.1807,0 0.3286,-0.135 0.3286,-0.3 0,-0.165 0.1445,-0.3 0.321,-0.3 0.1765,0 0.8853,-0.38357 1.575,-0.85237 1.9699,-1.33893 7.2256,-4.1525 9.129,-4.88712 0.3713,-0.14328 0.9788,-0.38327 1.35,-0.5333 3.5389,-1.43022 6.0749,-1.86535 11.8252,-2.02895 l 4.8502,-0.13799 0.9236,1.93522 c 1.5956,3.34325 4.7601,7.22279 6.9438,8.5127 0.4852,0.28665 0.8822,0.62707 0.8822,0.7565 0,0.12942 0.1771,0.23531 0.3935,0.23531 0.2164,0 0.6551,0.23716 0.975,0.52702 0.5291,0.47949 3.7988,2.16315 5.4565,2.80971 0.3713,0.1448 0.9788,0.38935 1.35,0.54344 0.3713,0.1541 1.215,0.4428 1.875,0.64157 0.66,0.19877 1.47,0.46231 1.8,0.58564 0.843,0.31504 4.6773,1.31736 6.3,1.64689 5.5554,1.12812 9.3995,1.82212 12.525,2.26123 1.1138,0.15648 3.0038,0.4213 4.2,0.58849 1.1963,0.16719 3.39,0.43799 4.875,0.60177 11.8706,1.30923 16.6247,1.96959 21.45,2.97947 0.7425,0.15539 1.755,0.36745 2.25,0.47125 0.495,0.10379 1.17,0.29484 1.5,0.42455 0.33,0.12971 1.14,0.39912 1.8,0.59868 1.866,0.56423 4.8846,2.13709 5.7465,2.99427 0.9421,0.93694 3.7035,4.97262 3.7035,5.41248 0,0.17245 0.135,0.31354 0.3,0.31354 0.165,0 0.3,0.1411 0.3,0.31355 0,0.29473 2.8867,4.76209 3.2867,5.08645 0.5421,0.43957 3.9503,4.84759 4.4874,5.80375 0.852497,1.51784 0.846497,4.12438 -0.014,5.9149 -0.3518,0.73225 -0.723,1.39885 -0.825,1.48135 -0.102,0.0825 -0.3319,0.41478 -0.5109,0.73839 -0.8043,1.45452 -4.812,2.46214 -8.5414,2.14747 -1.2283,-0.10363 -4.6827,-0.27152 -7.6766,-0.37308 -5.2671,-0.17868 -5.4495,-0.16518 -5.6342,0.41681 -0.2299,0.72414 0.3368,2.11417 1.1707,2.87189 1.6745,1.52155 2.5089,1.57023 15.7636,0.91986 3.1729,-0.15569 3.5003,-0.12138 3.9885,0.41807 0.4714,0.52088 0.4903,0.75378 0.167,2.04913 -0.5818,2.33117 -1.3075,3.3645 -4.7133,6.71146 -1.763,1.7325 -3.4074,3.555 -3.6542,4.05 -0.7806,1.56526 -2.2132,3.89609 -2.4586,4 -0.1298,0.055 -0.2361,0.22221 -0.2361,0.37157 0,0.70619 -2.2549,2.88804 -3.5616,3.44628 -2.6693,1.14027 -4.6234,0.17304 -9.6242,-4.76395 -2.0703,-2.0439 -4.1692,-3.98077 -4.6642,-4.30414 -1.3969,-0.91259 -5.4556,-1.90466 -7.7479,-1.89386 -1.6874,0.008 -7.2633,1.06657 -7.8521,1.49075 -0.165,0.11888 -0.9412,0.40023 -1.725,0.62524 -0.7837,0.22501 -1.425,0.51463 -1.425,0.64361 0,0.12897 -0.1897,0.2345 -0.4216,0.2345 -0.2319,0 -0.9407,0.25461 -1.575,0.56581 -2.0713,1.01611 -7.0152,3.27845 -8.6534,3.95974 -0.33,0.13725 -1.6125,0.58333 -2.85,0.99129 l -2.25,0.74176 0.08,1.2957 c 0.088,1.42005 0.3624,2.28708 1.4856,4.6872 0.6344,1.35576 2.4583,4.06881 3.0644,4.5585 0.1022,0.0825 0.9247,1.0275 1.8279,2.1 0.9032,1.0725 1.7198,2.0175 1.8147,2.1 0.4239,0.36864 2.604,3.84195 2.945,4.69203 0.4246,1.05831 7.9474,8.49411 10.1638,10.04625 0.3748,0.26244 1.1891,0.93492 1.8097,1.49445 0.6205,0.5595 2.0014,1.75623 3.0686,2.65941 1.0672,0.90318 2.0078,1.71504 2.0903,1.80414 0.082,0.0891 0.8925,0.76518 1.8,1.5024 0.9075,0.73725 1.8525,1.54539 2.1,1.79592 0.2475,0.2505 1.2589,1.13043 2.2475,1.95543 1.9732,1.64655 11.2122,10.76898 12.6199,12.46062 2.2122,2.65851 4.6326,5.94585 4.6326,6.29196 0,0.16356 0.11,0.29739 0.2444,0.29739 0.1343,0 0.5186,0.50625 0.8538,1.125 0.9257,1.70886 1.9407,3.4899 2.1797,3.825 0.1178,0.165 0.3825,0.9075 0.5884,1.65 0.2059,0.7425 0.5002,1.76457 0.6541,2.2713 0.1538,0.5067 0.2796,1.23963 0.2796,1.6287 0,0.38907 0.1259,1.122 0.2797,1.6287 0.1538,0.50673 0.4395,1.5288 0.6348,2.2713 0.5224,1.98627 1.4012,3.72531 3.411,6.75 2.2685,3.41409 2.5743,4.28712 3.0456,8.69355 0.3218,3.00804 0.3145,4.25445 -0.045,7.65 -0.4391,4.15143 -0.7984,6.62118 -1.3105,9.00645 -0.1594,0.7425 -0.4426,2.0925 -0.6293,3 -0.1866,0.9075 -0.4687,2.2575 -0.6268,3 -0.8402,3.94716 -1.4066,7.38033 -1.7322,10.5 -0.2946,2.82342 -0.5881,4.2 -0.8954,4.2 -0.1116,0 -0.4392,0.40008 -0.728,0.88908 -0.2889,0.489 -0.6957,1.06275 -0.904,1.275 -0.2083,0.21225 -0.8393,1.06092 -1.4022,1.88592 -0.9124,1.33716 -2.391,3.36723 -3.3926,4.65801 -0.1955,0.25191 -0.9558,1.33191 -1.6896,2.4 -0.7338,1.06809 -1.4153,2.00949 -1.5144,2.09199 -0.099,0.0825 -0.5048,0.6225 -0.9014,1.2 -0.3966,0.5775 -0.8016,1.1175 -0.9,1.2 -0.098,0.0825 -0.5062,0.6225 -0.9063,1.2 -0.4001,0.5775 -0.9673,1.31172 -1.2605,1.63158 -1.3568,1.47996 -0.2325,3.95667 3.6897,8.12799 l 2.9427,3.12963 0.1356,3.6804 c 0.1452,3.9414 0.4036,5.83614 0.8319,6.10089 0.1468,0.0907 0.2681,0.39321 0.2695,0.67221 0,0.64164 2.6775,5.93421 3.8858,7.69041 0.5014,0.72876 0.9116,1.46943 0.9116,1.64595 0,0.17652 0.135,0.32094 0.3,0.32094 0.165,0 0.3,0.14442 0.3,0.32094 0,0.17652 0.3854,0.88527 0.8564,1.575 0.8276,1.21185 2.3423,4.06068 2.9795,5.60406 1.5594,3.77655 1.9446,7.23489 1.1429,10.26036 -0.6802,2.56695 -0.9229,2.9844 -3.001,5.16315 -1.0878,1.14045 -1.9778,2.2542 -1.9778,2.475 0,0.22083 -0.1134,0.40149 -0.252,0.40149 -0.1386,0 -0.4307,0.54138 -0.649,1.20309 -0.3335,1.01058 -0.3302,1.33461 0.021,2.025 0.4882,0.95949 2.5308,3.05574 3.5048,3.59691 0.3713,0.20625 0.9113,0.50454 1.2,0.66291 0.2888,0.15834 1.47,0.72411 2.625,1.2573 3.002397,1.38597 4.275897,2.28891 5.273897,3.73953 0.8778,1.27578 1.1385,2.61768 0.5761,2.96526 -0.165,0.10197 -0.3,0.39909 -0.3,0.66024 0,1.31625 -4.2369,3.68976 -6.586497,3.68976 -0.6661,0 -1.0667,0.0889 -4.3219,0.95982 -2.3826,0.63744 -3.7421,2.05095 -4.9916,5.19018 -0.8285,2.08137 -1.3561,2.994 -2.1941,3.79482 l -0.9472,0.90516 -8.7043,-0.21255 c -4.7874,-0.11691 -8.7942,-0.26406 -8.904,-0.327 -0.259,-0.14853 -31.1879,0.41862 -43.6004,0.79947 -12.6037,0.38676 -31.6572,0.4893 -44.55,0.23979 z"
       id="path4713"
       inkscape:connector-curvature="0" />
    <path
       id="path4757"
       style="fill:#000000;fill-opacity:1;fill-rule:evenodd;stroke:#000000;stroke-width:1px;stroke-linecap:butt;stroke-linejoin:miter;stroke-opacity:1"
       d="m -417.57004,523.96613 -28.86751,-50 205.59465,0 c 10.10501,27.36527 3.45159,37.48243 10e-6,50 z m 316.38073,60 -4.04061,-16.52926 -6.06091,-9.59645 15.404823,-23.87429 149.118956,0 -28.867514,50 z m -281.73971,0 -28.86751,-50 166.40795,0 -13.44766,22.10652 c 0,0 -0.35643,1.33696 2.08344,3.03046 2.51185,1.74346 7.3849,2.4523 7.3849,2.4523 0,0 -4.85952,7.39668 -3.84936,11.94237 1.01015,4.54568 -3.66181,10.34208 -3.66181,10.34208 z m 34.64102,60 -28.86751,-50 114.82149,0 c 0,0 -7.6221,8.90268 -5.34926,13.44836 2.27285,4.54569 6.32878,7.56082 6.32878,7.56082 0,0 -11.51478,3.29088 -12.52494,13.89749 -1.01015,10.6066 17.81511,15.09333 17.81511,15.09333 z m 366.879932,-50 -114.225402,0 c 0,0 5.070009,13.23801 0.04333,18.4838 -7.45936,7.78452 9.373047,6.08757 9.050219,17.11132 -0.254441,8.68853 -15.516869,14.40488 -15.516869,14.40488 l 91.781207,0 z m 69.282035,-120 -190.931927,0 c 12.572518,20.12012 11.026168,35.53395 6.63649,50 l 155.427922,0 z"
       inkscape:connector-curvature="0"
       sodipodi:nodetypes="ccccccccccccccccscscccccscsccccsscccccccc" />
  </g>
</svg>
