<?xml version="1.0" encoding="UTF-8" standalone="no"?>
<!-- Created with Inkscape (http://www.inkscape.org/) -->

<svg
   xmlns:dc="http://purl.org/dc/elements/1.1/"
   xmlns:cc="http://creativecommons.org/ns#"
   xmlns:rdf="http://www.w3.org/1999/02/22-rdf-syntax-ns#"
   xmlns:svg="http://www.w3.org/2000/svg"
   xmlns="http://www.w3.org/2000/svg"
   xmlns:sodipodi="http://sodipodi.sourceforge.net/DTD/sodipodi-0.dtd"
   xmlns:inkscape="http://www.inkscape.org/namespaces/inkscape"
   width="210.85632mm"
   height="206.52417mm"
   viewBox="0 0 747.1287 731.77855"
   id="svg4142"
   version="1.1"
   inkscape:version="0.91 r13725"
   sodipodi:docname="KnightEducation.svg"
   inkscape:export-filename="C:\Users\mukho\Pictures\Iberia-Malta.png"
   inkscape:export-xdpi="90"
   inkscape:export-ydpi="90">
  <defs
     id="defs4144" />
  <sodipodi:namedview
     id="base"
     pagecolor="#ffffff"
     bordercolor="#666666"
     borderopacity="1.0"
     inkscape:pageopacity="0.0"
     inkscape:pageshadow="2"
     inkscape:zoom="0.5"
     inkscape:cx="283.06865"
     inkscape:cy="364.8125"
     inkscape:document-units="px"
     inkscape:current-layer="layer1"
     showgrid="false"
     fit-margin-top="0"
     fit-margin-left="0"
     fit-margin-right="0"
     fit-margin-bottom="0"
     inkscape:snap-bbox="true"
     inkscape:bbox-nodes="true"
     inkscape:bbox-paths="true"
     inkscape:snap-bbox-edge-midpoints="true"
     inkscape:snap-bbox-midpoints="true"
     inkscape:object-paths="true"
     inkscape:snap-intersection-paths="true"
     inkscape:object-nodes="true"
     inkscape:snap-midpoints="true"
     inkscape:snap-smooth-nodes="true"
     inkscape:snap-object-midpoints="true"
     inkscape:snap-center="true"
     inkscape:snap-page="true"
     inkscape:snap-global="true"
     inkscape:window-width="1366"
     inkscape:window-height="705"
     inkscape:window-x="-8"
     inkscape:window-y="-8"
     inkscape:window-maximized="1"
     units="mm" />
  <metadata
     id="metadata4147">
    <rdf:RDF>
      <cc:Work
         rdf:about="">
        <dc:format>image/svg+xml</dc:format>
        <dc:type
           rdf:resource="http://purl.org/dc/dcmitype/StillImage" />
        <dc:title></dc:title>
      </cc:Work>
    </rdf:RDF>
  </metadata>
  <g
     inkscape:groupmode="layer"
     id="layer3"
     inkscape:label="BackingWhite"
     transform="translate(-834.57807,5.8461)" />
  <g
     inkscape:label="Layer 1"
     inkscape:groupmode="layer"
     id="layer1"
     transform="translate(-283.87088,-106.34073)"
     style="display:inline">
    <path
       style="display:inline;fill:#000000"
       d="m 657.33659,106.34073 -4.45312,4.30859 c -21.501,20.80425 -46.82874,37.33135 -76.61524,49.99215 -7.3663,3.1311 -10.36285,4.2788 -19.43945,7.4493 -14.5303,5.0755 -30.7001,9.1149 -48.49219,12.1152 -19.85498,3.3482 -32.15009,4.3368 -54,4.3418 -24.67173,0.01 -41.39098,-1.6381 -64.05078,-6.2949 -27.23377,-5.5968 -54.97577,-16.2559 -74.83398,-28.7539 -1.47625,-0.9291 -2.76677,-1.6895 -2.86914,-1.6895 -0.10236,0 -1.4432,3.8813 -2.97852,8.625 -1.53533,4.7438 -3.70592,11.3929 -4.82422,14.7754 -1.1183,3.3825 -3.92772,11.9538 -6.24219,19.0488 -5.11186,15.6704 -14.48417,44.2702 -14.66211,44.7422 -0.0709,0.1881 0.65777,0.786 1.61719,1.3281 4.26711,2.4113 9.78653,6.7356 13.63281,10.6817 14.55463,14.9324 24.01238,36.9351 26.94922,62.6894 1.34367,11.7832 1.46084,21.51 0.47461,39.709 -1.89733,35.0115 -1.3403,74.1442 1.50391,105.4512 1.35042,14.8644 4.27601,36.5944 6.72461,49.9492 14.52808,79.2372 44.75808,143.8607 91.63672,195.9004 5.21703,5.7914 19.01309,19.5997 24.62109,24.6426 22.63299,20.3523 46.65117,37.3396 75.30078,53.2597 9.89291,5.4974 25.00332,13.1652 34.19922,17.3536 2.64,1.2024 5.88117,2.6842 7.20117,3.2929 7.7148,3.5577 23.18663,10.0219 43.79883,18.2989 25.7212,10.3285 35.93626,14.843 42.60156,18.83 2.90861,1.7399 3.36964,1.929 3.89844,1.5957 7.7693,-4.8958 17.10668,-9.1062 45.30078,-20.4277 20.6044,-8.2738 36.04308,-14.7237 43.89258,-18.3398 1.2686,-0.5845 4.53531,-2.0752 7.25781,-3.3125 7.3437,-3.3375 25.23912,-12.4194 33.44922,-16.9746 28.8954,-16.0324 51.52548,-31.9372 74.55078,-52.3946 6.2417,-5.5455 20.48881,-19.7124 25.97071,-25.8242 39.3428,-43.8631 66.28345,-94.8863 82.90625,-157.0176 9.1952,-34.3689 14.85103,-71.4609 17.11133,-112.2324 1.2978,-23.4082 1.16767,-60.6224 -0.29493,-84.75 -1.5729,-25.9483 0.38155,-45.2617 6.46485,-63.9004 6.66051,-20.4071 19.86701,-38.0782 34.73631,-46.4805 0.9594,-0.5421 1.6843,-1.14 1.6133,-1.3281 -0.1712,-0.4514 -15.2907,-46.6131 -20.6484,-63.041 -6.7793,-20.7865 -7.9006,-24.1415 -8.0703,-24.1465 -0.088,0 -1.642,0.9186 -3.45123,2.0469 -19.81749,12.3588 -47.22467,22.841 -74.23828,28.3926 -22.6598,4.6568 -39.37908,6.2999 -64.05078,6.2949 -21.8532,0 -34.1559,-0.9936 -54,-4.3418 -14.1571,-2.3887 -22.32743,-4.2474 -36.29883,-8.2578 -40.75289,-11.6979 -78.67796,-33.0159 -107.25585,-60.2891 -1.90181,-1.81498 -3.94969,-3.75341 -4.55079,-4.30857 z m -0.94922,17.66604 3.97461,3.8847 c 14.2069,13.8891 31.79093,26.7862 50.17383,36.7989 31.8754,17.3617 68.16626,28.3606 107.13086,32.4687 18.1566,1.9143 39.58623,2.1289 58.01953,0.5801 39.3862,-3.3093 77.24317,-14.6981 104.69727,-31.498 2.2748,-1.3921 4.25233,-2.5294 4.39453,-2.5274 0.2303,0 27.1491,81.7781 27.334,83.0352 0.053,0.3585 -0.6195,0.8915 -2.2637,1.7949 -3.7323,2.0508 -7.4121,4.974 -11.76561,9.3457 -6.2049,6.2309 -10.55582,12.2851 -14.69922,20.4492 -7.4244,14.6292 -11.27647,30.7024 -12.32227,51.4199 -0.344,6.8155 -0.24568,12.0913 0.47852,25.5 0.8764,16.2331 1.12508,28.69 0.95508,48 -0.1654,18.7816 -0.32638,23.6128 -1.26758,37.9512 -5.5204,84.1036 -27.59466,155.1917 -65.75586,211.7637 -12.7344,18.8781 -24.83048,33.5459 -40.85938,49.5488 -27.9084,27.8631 -59.95208,50.5082 -99.92578,70.6172 -19.2576,9.6876 -31.54261,15.104 -62.09961,27.3809 -26.2231,10.5356 -36.29458,14.9797 -43.30468,19.1054 -1.5743,0.9265 -2.9031,1.676 -2.9531,1.668 -0.0505,-0.01 -1.10433,-0.6294 -2.34183,-1.3809 -3.0935,-1.8784 -13.1917,-6.7884 -19.34961,-9.4082 -2.805,-1.1933 -13.06578,-5.3797 -22.80078,-9.3027 -19.3696,-7.8056 -28.19358,-11.4803 -37.80078,-15.7422 -46.37195,-20.5714 -82.42482,-43.1818 -113.84961,-71.3984 -6.10749,-5.484 -19.22156,-18.6161 -24.42187,-24.4551 -27.03644,-30.3573 -47.74889,-64.0304 -63.16602,-102.6934 -17.11696,-42.9258 -27.36582,-90.9281 -31.04687,-145.4043 -0.92455,-13.6825 -1.10833,-19.1664 -1.27344,-38.25 -0.16957,-19.5983 0.075,-31.9931 0.95312,-48.2988 0.72874,-13.5321 0.82229,-18.4157 0.48047,-25.2012 -1.17949,-23.4139 -6.09884,-41.5149 -15.57226,-57.2988 -5.9023,-9.8339 -15.40677,-19.6258 -23.21485,-23.916 -1.63924,-0.9007 -2.31627,-1.4351 -2.26367,-1.791 0.18577,-1.258 27.10488,-83.039 27.33399,-83.041 0.14177,-0.001 1.76137,0.922 3.5996,2.0527 34.29139,21.0921 81.9225,33.0673 131.42774,33.041 49.93491,-0.027 98.46354,-11.919 139.21484,-34.1152 18.3591,-9.9997 35.98533,-22.9278 50.17383,-36.7989 z"
       id="path4719-1"
       inkscape:connector-curvature="0"
       sodipodi:nodetypes="ccssscssssssccssssssssscsccscssssssssccscsscsssccccsssccccssscssssssccccssssssssssscccsscc" />
    <path
       style="display:inline;fill:#000000"
       d="m 614.08643,640.05917 c -19.3997,-0.3754 -23.1411,-1.1045 -27.304,-5.3207 -1.0747,-1.0884 -2.2631,-2.5929 -2.6409,-3.3432 -0.5999,-1.1913 -0.8655,-1.4114 -2.096,-1.7369 -0.775,-0.205 -1.8237,-0.5024 -2.3304,-0.6608 -0.5067,-0.1584 -1.2075,-0.2881 -1.5573,-0.2881 -0.3498,0 -0.7194,-0.135 -0.8214,-0.3 -0.102,-0.165 -0.4493,-0.3 -0.7718,-0.3 -0.3225,0 -0.8208,-0.1192 -1.1073,-0.265 -0.2865,-0.1457 -0.9259,-0.4453 -1.4209,-0.6658 -1.545,-0.6881 -3.336,-2.0005 -3.8957,-2.8547 -0.4612,-0.7038 -0.486,-0.9707 -0.1758,-1.8919 1.2433,-3.6924 3.699,-5.7202 9.4715,-7.8212 0.33,-0.1201 1.545,-0.6916 2.7,-1.2699 l 2.1,-1.0515 -0.086,-1.2889 c -0.098,-1.4749 -1.284,-3.3169 -4.0208,-6.2465 -2.1823,-2.3361 -3.2433,-4.7371 -3.2433,-7.3397 0,-1.2858 0.6991,-4.0901 1.3397,-5.3743 0.2532,-0.5075 0.4603,-1.1045 0.4603,-1.3267 0,-0.2221 0.1013,-0.406 0.225,-0.4085 0.1238,0 0.5554,-0.6776 0.9591,-1.5 0.4037,-0.8225 0.8424,-1.4954 0.975,-1.4954 0.1325,0 0.2409,-0.177 0.2409,-0.3934 0,-0.2164 0.2388,-0.6551 0.5307,-0.975 0.2918,-0.3199 0.9633,-1.2566 1.4921,-2.0816 0.5288,-0.825 1.0662,-1.6418 1.1943,-1.8152 0.7293,-0.9874 3.033,-5.4245 3.8081,-7.3348 0.9542,-2.3519 1.3531,-4.5629 1.3642,-7.5608 0.014,-3.7719 0.2692,-4.4458 3.6145,-9.5392 3.9923,-6.0783 4.0053,-6.763 0.1461,-7.7075 -0.825,-0.2019 -2.3679,-0.3728 -3.4287,-0.3798 -2.0997,-0.014 -3.9213,-0.5223 -3.9213,-1.0946 0,-0.3431 1.1819,-2.8 1.5,-3.1181 0.2968,-0.2967 1.2405,-1.961 1.4035,-2.475 0.092,-0.2887 0.2858,-0.525 0.4315,-0.525 0.1458,0 0.265,-0.1444 0.265,-0.3209 0,-0.1765 0.405,-0.9096 0.9,-1.6291 0.495,-0.7194 0.9,-1.3944 0.9,-1.5 0,-0.1055 0.405,-0.7805 0.9,-1.5 0.495,-0.7194 0.9,-1.3944 0.9,-1.5 0,-0.1055 0.3888,-0.7569 0.8639,-1.4474 0.4751,-0.6906 1.1501,-1.7611 1.5,-2.3791 0.3499,-0.6179 0.9269,-1.6297 1.2823,-2.2485 0.3554,-0.6187 0.9292,-1.665 1.275,-2.325 0.3459,-0.66 0.6991,-1.2675 0.7849,-1.35 0.2681,-0.2577 2.8818,-5.8172 3.667,-7.8 0.1633,-0.4125 0.4162,-0.9844 0.5619,-1.2709 0.1458,-0.2865 0.265,-0.7848 0.265,-1.1073 0,-0.3225 0.1189,-0.6598 0.2642,-0.7496 0.1453,-0.09 0.3384,-0.4691 0.4291,-0.8427 0.091,-0.3737 0.3184,-1.2195 0.5058,-1.8795 1.6201,-5.7041 2.2318,-10.2464 2.2423,-16.65 0.01,-5.8209 -0.3801,-9.4112 -1.6442,-15.15 -0.1818,-0.825 -0.4054,-1.94 -0.497,-2.4778 -0.092,-0.5377 -0.2866,-1.0519 -0.4333,-1.1427 -0.1468,-0.091 -0.2669,-0.4963 -0.2669,-0.9013 0,-0.405 -0.1218,-0.9707 -0.2707,-1.2573 -0.1489,-0.2865 -0.4321,-1.1284 -0.6293,-1.8709 -0.1971,-0.7425 -0.4803,-1.5844 -0.6292,-1.8709 -0.1489,-0.2865 -0.2708,-0.7658 -0.2708,-1.065 0,-0.2992 -0.1115,-0.6723 -0.2478,-0.8291 -0.1363,-0.1567 -0.4306,-0.8925 -0.654,-1.635 -0.2235,-0.7425 -0.4888,-1.485 -0.5896,-1.65 -0.1009,-0.165 -0.3555,-0.84 -0.5658,-1.5 -0.2103,-0.66 -0.5266,-1.5375 -0.7027,-1.95 -0.1762,-0.4125 -0.4192,-1.02 -0.5401,-1.35 -0.1208,-0.33 -0.3908,-1.005 -0.6,-1.5 -0.2091,-0.495 -0.4972,-1.2037 -0.6401,-1.575 -0.1429,-0.3712 -0.3949,-1.0125 -0.5599,-1.425 -0.165,-0.4125 -0.435,-1.0875 -0.6,-1.5 -0.165,-0.4125 -0.453,-1.1212 -0.6401,-1.575 -0.1871,-0.4537 -0.439,-1.095 -0.5599,-1.425 -0.3047,-0.8322 -0.7325,-1.857 -1.4701,-3.5217 -0.3464,-0.782 -0.6299,-1.5329 -0.6299,-1.6687 0,-0.1358 -0.27,-0.8057 -0.6,-1.4887 -0.33,-0.6831 -0.6,-1.3852 -0.6,-1.5605 0,-0.1752 -0.1192,-0.5529 -0.265,-0.8395 -0.2479,-0.4874 -0.5008,-1.0854 -1.235,-2.9209 -0.165,-0.4125 -0.4261,-1.0537 -0.5801,-1.425 -0.1541,-0.3712 -0.4517,-1.215 -0.6613,-1.875 -0.2096,-0.66 -0.4885,-1.3282 -0.6198,-1.485 -0.1313,-0.1567 -0.2388,-0.5875 -0.2388,-0.9573 0,-0.3697 -0.135,-0.7557 -0.3,-0.8577 -0.165,-0.1019 -0.3,-0.5069 -0.3,-0.9 0,-0.393 -0.135,-0.798 -0.3,-0.9 -0.165,-0.1019 -0.3,-0.4493 -0.3,-0.7718 0,-0.3225 -0.1218,-0.8207 -0.2707,-1.1073 -0.1489,-0.2865 -0.4321,-1.1284 -0.6293,-1.8709 -0.1971,-0.7425 -0.4803,-1.5844 -0.6292,-1.8709 -0.1489,-0.2865 -0.2708,-0.8523 -0.2708,-1.2573 0,-0.405 -0.1201,-0.8106 -0.2668,-0.9013 -0.1468,-0.091 -0.3395,-0.6049 -0.4284,-1.1427 -0.089,-0.5378 -0.2925,-1.5178 -0.4528,-2.1778 -2.4447,-10.0667 -3.5162,-21.8713 -2.6278,-28.95 0.441,-3.514 0.6204,-4.5504 1.3758,-7.95 0.165,-0.7425 0.4422,-1.9912 0.6159,-2.775 0.6879,-3.1029 0.9184,-4.8708 1.0806,-8.2903 0.1652,-3.4839 0.1925,-3.5961 1.1937,-4.9077 0.5635,-0.7382 1.2759,-1.9013 1.583,-2.5846 0.3072,-0.6833 0.8568,-1.9174 1.2214,-2.7424 1.2776,-2.8907 2.3207,-4.8061 2.8616,-5.2551 0.6597,-0.5475 0.5836,-4.2654 -0.1324,-6.4703 -0.7805,-2.4036 -1.0078,-4.2375 -0.7035,-5.6746 0.2058,-0.9715 0.3946,-1.2144 0.9919,-1.2759 1.7327,-0.1785 5.8001,-1.091 7.0378,-1.579 0.33,-0.1301 1.41,-0.548 2.4,-0.9285 2.518,-0.968 7.3443,-3.4879 9.1964,-4.8017 0.4379,-0.3107 0.9442,-0.5649 1.125,-0.5649 0.1807,0 0.3286,-0.135 0.3286,-0.3 0,-0.165 0.1445,-0.3 0.321,-0.3 0.1765,0 0.8853,-0.3835 1.575,-0.8523 1.9699,-1.339 7.2256,-4.1525 9.129,-4.8872 0.3713,-0.1432 0.9788,-0.3832 1.35,-0.5333 3.5389,-1.4302 6.0749,-1.8653 11.8252,-2.0289 l 4.8502,-0.138 0.9236,1.9352 c 1.5956,3.3433 4.7601,7.2228 6.9438,8.5127 0.4852,0.2867 0.8822,0.6271 0.8822,0.7565 0,0.1294 0.1771,0.2353 0.3935,0.2353 0.2164,0 0.6551,0.2372 0.975,0.527 0.5291,0.4795 3.7988,2.1632 5.4565,2.8098 0.3713,0.1448 0.9788,0.3893 1.35,0.5434 0.3713,0.1541 1.215,0.4428 1.875,0.6416 0.66,0.1987 1.47,0.4623 1.8,0.5856 0.843,0.315 4.6773,1.3174 6.3,1.6469 5.5554,1.1281 9.3995,1.8221 12.525,2.2612 1.1138,0.1565 3.0038,0.4213 4.2,0.5885 1.1963,0.1672 3.39,0.438 4.875,0.6018 11.8706,1.3092 16.6247,1.9696 21.45,2.9795 0.7425,0.1553 1.755,0.3674 2.25,0.4712 0.495,0.1038 1.17,0.2948 1.5,0.4246 0.33,0.1297 1.14,0.3991 1.8,0.5986 1.866,0.5643 4.8846,2.1371 5.7465,2.9943 0.9421,0.9369 3.7035,4.9726 3.7035,5.4125 0,0.1724 0.135,0.3135 0.3,0.3135 0.165,0 0.3,0.1411 0.3,0.3136 0,0.2947 2.8867,4.7621 3.2867,5.0864 0.5421,0.4396 3.9503,4.8476 4.4874,5.8038 0.8525,1.5178 0.8465,4.1244 -0.014,5.9149 -0.3518,0.7322 -0.723,1.3988 -0.825,1.4813 -0.102,0.082 -0.3319,0.4148 -0.5109,0.7384 -0.8043,1.4545 -4.812,2.4622 -8.5414,2.1475 -1.2283,-0.1036 -4.6827,-0.2715 -7.6766,-0.3731 -5.2671,-0.1787 -5.4495,-0.1652 -5.6342,0.4168 -0.2299,0.7242 0.3368,2.1142 1.1707,2.8719 1.6745,1.5216 2.5089,1.5702 15.7636,0.9199 3.1729,-0.1557 3.5003,-0.1214 3.9885,0.418 0.4714,0.5209 0.4903,0.7538 0.167,2.0492 -0.5818,2.3311 -1.3075,3.3645 -4.7133,6.7114 -1.763,1.7325 -3.4074,3.555 -3.6542,4.05 -0.7806,1.5653 -2.2132,3.8961 -2.4586,4 -0.1298,0.055 -0.2361,0.2222 -0.2361,0.3716 0,0.7062 -2.2549,2.888 -3.5616,3.4463 -2.6693,1.1402 -4.6234,0.173 -9.6242,-4.764 -2.0703,-2.0439 -4.1692,-3.9807 -4.6642,-4.3041 -1.3969,-0.9126 -5.4556,-1.9047 -7.7479,-1.8939 -1.6874,0.01 -7.2633,1.0666 -7.8521,1.4908 -0.165,0.1189 -0.9412,0.4002 -1.725,0.6252 -0.7837,0.225 -1.425,0.5146 -1.425,0.6436 0,0.129 -0.1897,0.2345 -0.4216,0.2345 -0.2319,0 -0.9407,0.2546 -1.575,0.5658 -2.0713,1.0161 -7.0152,3.2785 -8.6534,3.9598 -0.33,0.1372 -1.6125,0.5833 -2.85,0.9913 l -2.25,0.7417 0.08,1.2957 c 0.088,1.4201 0.3624,2.2871 1.4856,4.6872 0.6344,1.3558 2.4583,4.0688 3.0644,4.5585 0.1022,0.083 0.9247,1.0275 1.8279,2.1 0.9032,1.0725 1.7198,2.0175 1.8147,2.1 0.4239,0.3687 2.604,3.842 2.945,4.6921 0.4246,1.0583 7.9474,8.4941 10.1638,10.0462 0.3748,0.2624 1.1891,0.9349 1.8097,1.4945 0.6205,0.5595 2.0014,1.7562 3.0686,2.6594 1.0672,0.9031 2.0078,1.715 2.0903,1.8041 0.082,0.089 0.8925,0.7652 1.8,1.5024 0.9075,0.7373 1.8525,1.5454 2.1,1.7959 0.2475,0.2505 1.2589,1.1305 2.2475,1.9555 1.9732,1.6465 11.2122,10.7689 12.6199,12.4606 2.2122,2.6585 4.6326,5.9458 4.6326,6.2919 0,0.1636 0.11,0.2974 0.2444,0.2974 0.1343,0 0.5186,0.5063 0.8538,1.125 0.9257,1.7089 1.9407,3.4899 2.1797,3.825 0.1178,0.165 0.3825,0.9075 0.5884,1.65 0.2059,0.7425 0.5002,1.7646 0.6541,2.2713 0.1538,0.5067 0.2796,1.2397 0.2796,1.6287 0,0.3891 0.1259,1.122 0.2797,1.6287 0.1538,0.5068 0.4395,1.5288 0.6348,2.2713 0.5224,1.9863 1.4012,3.7253 3.411,6.75 2.2685,3.4141 2.5743,4.2871 3.0456,8.6936 0.3218,3.008 0.3145,4.2544 -0.045,7.65 -0.4391,4.1514 -0.7984,6.6212 -1.3105,9.0064 -0.1594,0.7425 -0.4426,2.0925 -0.6293,3 -0.1866,0.9075 -0.4687,2.2575 -0.6268,3 -0.8402,3.9472 -1.4066,7.3804 -1.7322,10.5 -0.2946,2.8234 -0.5881,4.2 -0.8954,4.2 -0.1116,0 -0.4392,0.4001 -0.728,0.8891 -0.2889,0.489 -0.6957,1.0628 -0.904,1.275 -0.2083,0.2123 -0.8393,1.0609 -1.4022,1.8859 -0.9124,1.3372 -2.391,3.3673 -3.3926,4.658 -0.1955,0.2519 -0.9558,1.3319 -1.6896,2.4 -0.7338,1.0681 -1.4153,2.0095 -1.5144,2.092 -0.099,0.082 -0.5048,0.6225 -0.9014,1.2 -0.3966,0.5775 -0.8016,1.1175 -0.9,1.2 -0.098,0.083 -0.5062,0.6225 -0.9063,1.2 -0.4001,0.5775 -0.9673,1.3117 -1.2605,1.6316 -1.3568,1.48 -0.2325,3.9567 3.6897,8.128 l 2.9427,3.1296 0.1356,3.6804 c 0.1452,3.9414 0.4036,5.8362 0.8319,6.1009 0.1468,0.091 0.2681,0.3932 0.2695,0.6722 0,0.6417 2.6775,5.9342 3.8858,7.6904 0.5014,0.7288 0.9116,1.4695 0.9116,1.646 0,0.1765 0.135,0.3209 0.3,0.3209 0.165,0 0.3,0.1444 0.3,0.321 0,0.1765 0.3854,0.8852 0.8564,1.575 0.8276,1.2118 2.3423,4.0606 2.9795,5.604 1.5594,3.7766 1.9446,7.2349 1.1429,10.2604 -0.6802,2.5669 -0.9229,2.9844 -3.001,5.1631 -1.0878,1.1405 -1.9778,2.2542 -1.9778,2.475 0,0.2209 -0.1134,0.4015 -0.252,0.4015 -0.1386,0 -0.4307,0.5414 -0.649,1.2031 -0.3335,1.0106 -0.3302,1.3346 0.021,2.025 0.4882,0.9595 2.5308,3.0558 3.5048,3.5969 0.3713,0.2063 0.9113,0.5046 1.2,0.6629 0.2888,0.1584 1.47,0.7241 2.625,1.2573 3.0024,1.386 4.2759,2.2889 5.2739,3.7396 0.8778,1.2757 1.1385,2.6176 0.5761,2.9652 -0.165,0.102 -0.3,0.3991 -0.3,0.6603 0,1.3162 -4.2369,3.6897 -6.5865,3.6897 -0.6661,0 -1.0667,0.089 -4.3219,0.9598 -2.3826,0.6375 -3.7421,2.051 -4.9916,5.1902 -0.8285,2.0814 -1.3561,2.994 -2.1941,3.7948 l -0.9472,0.9052 -8.7043,-0.2125 c -4.7874,-0.117 -8.7942,-0.2641 -8.904,-0.327 -0.259,-0.1486 -31.1879,0.4186 -43.6004,0.7994 -12.6037,0.3868 -31.6572,0.4893 -44.55,0.2398 z"
       id="path4713-2"
       inkscape:connector-curvature="0" />
    <path
       id="path4823"
       style="fill:#000000;fill-opacity:1;fill-rule:evenodd;stroke:#000000;stroke-width:1;stroke-linecap:butt;stroke-linejoin:miter;stroke-miterlimit:4;stroke-dasharray:none;stroke-opacity:1"
       d="m 656.32881,781.33668 30.7134,0 -0.8202,-7.37054 222.85709,-141.42857 -2.32143,-3.39286 -5.17857,3.03572 -9.47596,-13.4783 C 750.20814,635.51499 680.56277,720.36395 656.32881,752.11258 693.68262,669.94776 780.46019,629.06792 889.07269,609.61075 l -0.31568,-0.50507 C 788.53442,629.00868 698.01578,662.56782 656.32881,751.39179 614.64184,662.56782 524.1232,629.00868 423.90061,609.10568 l -0.31568,0.50507 C 532.19743,629.06792 618.975,669.94776 656.32881,752.11258 632.09485,720.36394 562.44948,635.51499 420.55448,618.70213 l -9.47596,13.4783 -5.17857,-3.03572 -2.32143,3.39286 222.85709,141.42857 -0.8202,7.37054 30.7134,0"
       inkscape:connector-curvature="0"
       sodipodi:nodetypes="ccccccccccccccccccccc" />
  </g>
</svg>
